<svg width="283" height="255" viewBox="0 0 283 255" fill="none" xmlns="http://www.w3.org/2000/svg">
<g clip-path="url(#clip0_682_1114)">
<path d="M15.8091 253.313H253.989C253.572 206.906 252.732 160.506 252.732 114.092C252.732 93.709 251.426 82.1409 251.426 56.283C251.426 30.4251 240.868 7.93884 211.4 4.05218C162.748 -2.3602 101.434 0.0858237 61.4572 2.91806C32.5784 4.96561 16.7533 24.2763 15.4534 57.7114C13.5404 106.957 14.7974 201.567 15.8091 253.313Z" fill="#DAEBFF"/>
<path d="M254.253 163.375C248.458 164.766 245.791 177.885 244.645 194.192C243.498 210.499 244.357 228.24 244.357 228.24" stroke="#B2D3FB" stroke-width="1.58" stroke-miterlimit="10"/>
<path d="M247.508 225.377C249.513 204.779 253.051 171.694 251.23 155.283C250.083 144.983 242.302 140.57 237.177 146.062" stroke="#B2D3FB" stroke-width="1.58" stroke-miterlimit="10"/>
<path d="M252.18 128.566C247.796 125.532 241.499 134.973 239.782 160.432C238.066 185.892 242.928 222.514 242.928 222.514" stroke="#B2D3FB" stroke-width="1.58" stroke-miterlimit="10"/>
<path d="M252.18 128.566C244.485 126.641 239.292 135.874 245.638 142.795C251.984 149.716 262.757 156.643 262.757 156.643C262.757 156.643 267.178 147.411 267.76 137.799C268.336 128.186 263.29 124.263 257.76 124.723C253.143 125.109 252.18 128.566 252.18 128.566Z" fill="#B2D3FB"/>
<path d="M227.366 172.987C233.909 164.913 235.251 166.066 241.597 161.26C247.943 156.453 248.33 151.837 245.442 148.184C242.554 144.53 237.171 146.069 237.171 146.069C237.171 146.069 236.784 142.415 231.015 142.415C225.245 142.415 220.818 149.146 221.977 159.335C223.136 169.523 227.36 172.987 227.36 172.987H227.366Z" fill="#B2D3FB"/>
<path d="M254.253 163.375C249.832 161.646 235.699 161.646 240.776 174.146C245.859 186.646 254.62 189.809 258.305 197.19C260.353 201.279 260.2 206.465 260.2 206.465C260.2 206.465 267.208 202.523 273.904 188.374C279.563 176.426 277.356 162.713 267.938 159.335C256.674 155.295 254.24 163.375 254.24 163.375H254.253Z" fill="#B2D3FB"/>
<path d="M259.342 253.479H234.871L231.493 210.683H262.72L259.342 253.479Z" fill="#B2D3FB"/>
<path d="M77.828 52.6354C67.84 52.6354 59.7404 44.5372 59.7404 34.5508C59.7404 24.5644 67.84 16.4662 77.828 16.4662C87.8161 16.4662 95.9156 24.5644 95.9156 34.5508C95.9156 44.5372 87.8161 52.6354 77.828 52.6354Z" fill="#B2D3FB"/>
<path d="M77.828 36.4758C78.8913 36.4758 79.7533 35.6139 79.7533 34.5508C79.7533 33.4877 78.8913 32.6259 77.828 32.6259C76.7648 32.6259 75.9028 33.4877 75.9028 34.5508C75.9028 35.6139 76.7648 36.4758 77.828 36.4758Z" fill="#DAEBFF"/>
<path d="M77.8648 23.5529C77.3866 23.5529 76.9942 23.9453 76.9942 24.4234V35.1271H78.7355V24.4234C78.7355 23.9453 78.3431 23.5529 77.8648 23.5529Z" fill="#DAEBFF"/>
<path d="M89.3489 26.379L77.9016 33.3799L78.7907 34.8328L90.238 27.8258C90.612 27.599 90.7469 27.1208 90.5568 26.7285C90.3361 26.2748 89.7781 26.1154 89.3489 26.3729V26.379Z" fill="#DAEBFF"/>
<path d="M176.592 42.2567H139.485V48.197H176.592V42.2567Z" fill="#B2D3FB"/>
<path d="M176.592 34.5386H139.485V40.4789H176.592V34.5386Z" fill="#B2D3FB"/>
<path d="M196.613 48.8693L201.66 19.5932L196.893 18.7716L191.846 48.0477L196.613 48.8693Z" fill="#B2D3FB"/>
<path d="M190.587 48.8711L195.634 19.595L190.867 18.7734L185.82 48.0495L190.587 48.8711Z" fill="#B2D3FB"/>
<path d="M184.555 48.8668L189.602 19.5907L184.834 18.7691L179.787 48.0452L184.555 48.8668Z" fill="#B2D3FB"/>
<path d="M200.235 48.8775V27.599H201.136L202.117 48.8775H200.235Z" fill="#B2D3FB"/>
<path d="M206.569 47.6208H131.919V51.863H206.569V47.6208Z" fill="#B2D3FB"/>
<path d="M152.754 162.449H155.874L146.389 253.16H143.274L152.754 162.449Z" fill="#9C745B"/>
<path d="M202.191 198.759H198.181V241.684H202.191V198.759Z" fill="#268AFF"/>
<path d="M199.867 227.173H200.505C202.111 227.173 203.411 228.473 203.411 230.079V243.131C203.411 243.891 202.792 244.51 202.032 244.51H198.34C197.58 244.51 196.961 243.891 196.961 243.131V230.079C196.961 228.473 198.261 227.173 199.867 227.173Z" fill="#268AFF"/>
<path d="M200.192 243.057C199.72 243.057 199.34 243.437 199.34 243.909V249.414C199.34 249.887 199.72 250.267 200.192 250.267C200.664 250.267 201.044 249.887 201.044 249.414V243.909C201.044 243.437 200.664 243.057 200.192 243.057Z" fill="#268AFF"/>
<path d="M205.52 203.014H194.864C193.386 203.014 192.056 202.131 191.479 200.776L190.051 197.423C189.021 194.995 190.799 192.304 193.435 192.304H206.949C209.585 192.304 211.37 194.995 210.333 197.423L208.905 200.776C208.328 202.137 206.992 203.014 205.52 203.014Z" fill="#268AFF"/>
<path d="M220.229 251.113C220.229 252.706 218.936 254 217.342 254C215.747 254 214.454 252.706 214.454 251.113C214.454 249.519 215.747 248.225 217.342 248.225C218.936 248.225 220.229 249.519 220.229 251.113Z" fill="#268AFF"/>
<path d="M203.074 251.113C203.074 252.706 201.78 254 200.186 254C198.592 254 197.298 252.706 197.298 251.113C197.298 249.519 198.592 248.225 200.186 248.225C201.78 248.225 203.074 249.519 203.074 251.113Z" fill="#268AFF"/>
<path d="M180.149 251.113C180.149 252.706 181.442 254 183.036 254C184.631 254 185.924 252.706 185.924 251.113C185.924 249.519 184.631 248.225 183.036 248.225C181.442 248.225 180.149 249.519 180.149 251.113Z" fill="#268AFF"/>
<path d="M184.134 252.333L182.429 251.56C185.563 244.633 192.362 240.329 200.174 240.329C207.985 240.329 214.779 244.633 217.906 251.56L216.201 252.333C213.381 246.086 207.237 242.205 200.174 242.205C193.104 242.205 186.961 246.086 184.134 252.333Z" fill="#268AFF"/>
<path d="M242.057 112.811C238.887 106.736 228.194 106.08 228.194 106.08L202.209 112.578C202.209 112.578 191.369 131.491 189.272 141.287C187.684 148.717 169.039 176.904 161.521 189.662C159.13 193.726 161.025 194.039 162.355 194.658C176.568 201.248 219.672 194.658 219.672 194.658C225.067 194.658 230.524 189.263 231.658 183.991C232.934 178.038 234.172 168.812 234.203 155.338C234.264 127.334 248.569 125.287 242.057 112.811Z" fill="#268AFF"/>
<path d="M223.363 186.37C226.183 185.395 228.262 182.986 228.752 180.043C229.727 174.201 230.524 166.133 230.549 155.344C230.61 127.34 241.591 120.836 237.851 111.892C233.584 101.697 205.533 105.847 196.28 111.892C188.567 116.931 187.721 131.497 185.624 141.287C183.858 149.544 181.498 179.399 180.799 188.54C195.318 189.459 209.751 191.078 223.363 186.37Z" fill="#1E6FCD"/>
<path d="M188.726 231.042L191.124 243.076C191.124 243.076 189.517 245.742 187.279 246.803C185.305 247.741 184.281 248.434 182.203 248.55C180.67 248.636 180.326 253.074 180.326 253.074H193.595L205.03 248.293C205.03 248.293 204.926 245.589 203.969 242.573C203.019 239.557 200.088 228.884 200.088 228.884L188.72 231.048L188.726 231.042Z" fill="#272C34"/>
<path d="M154.783 231.177L154.464 243.076C154.464 243.076 151.724 245.657 147.352 247.612C144.538 248.875 138.185 253.068 141.601 253.068H156.212L169.069 253.129C169.069 253.129 169.229 248.47 168.278 245.454C167.328 242.438 165.58 240.06 165.421 235.774C165.262 231.489 165.102 229.111 165.102 229.111L154.789 231.17L154.783 231.177Z" fill="#272C34"/>
<path d="M201.02 171.828L196.483 161.051H181.166C181.166 161.051 171.24 164.454 160.179 167.574C149.118 170.694 142.428 171.828 139.872 178.633C137.315 185.438 141.576 199.053 144.691 208.408C147.806 217.763 153.765 235.063 153.765 235.063C153.765 235.063 161.025 237.049 165.562 235.345C165.562 235.345 163.6 200.402 161.791 191.39C161.791 191.39 176.911 191.108 183.147 190.538C189.389 189.968 198.745 176.929 201.014 171.822L201.02 171.828Z" fill="#323945"/>
<path d="M190.302 168.138C187.181 169.554 170.921 177.291 167.898 180.049C164.305 183.323 165.059 188.558 166.764 191.679C168.468 194.799 175.274 208.408 179.241 216.635C183.214 224.856 188.316 236.203 188.316 236.203C188.316 236.203 193.135 237.338 201.081 233.365C201.081 233.365 197.641 216.617 195.655 207.544C193.668 198.471 190.707 189.87 190.707 189.87C190.707 189.87 205.336 190.833 212.142 189.41C218.948 187.994 221.787 186.29 221.499 176.647C221.217 167.004 219.23 160.769 219.23 160.769L191.437 161.051L190.302 168.138Z" fill="#323945"/>
<path d="M191.437 161.051L190.302 168.138C187.181 169.554 170.921 177.291 167.898 180.049C164.305 183.323 165.059 188.558 166.764 191.679C168.468 194.799 175.274 208.408 179.241 216.635" stroke="#272C34" stroke-miterlimit="10"/>
<path d="M187.985 184.776C187.985 184.776 191.755 191.531 194.11 202.057" stroke="#272C34" stroke-miterlimit="10"/>
<path d="M198.5 82.8337C198.187 84.2498 199.113 94.9105 200.352 97.1481C200.873 98.0922 208.445 100.434 208.445 100.434C208.445 100.434 202.338 119.739 198.359 120.437C194.386 121.136 182.454 103.07 182.454 103.07C182.454 103.07 188.034 100.882 188.359 100.207C189.241 98.3742 187.997 86.9778 187.997 86.9778L198.494 82.8337H198.5Z" fill="#E8B3A0"/>
<path d="M188.371 100.201C188.31 100.33 188.04 100.52 187.66 100.741C189.37 100.9 191.185 100.741 193.147 100.097C196.329 99.0669 198.132 96.9703 199.554 94.4385C198.751 90.4476 198.261 83.9188 198.5 82.8275L188.003 86.9717C188.003 86.9717 189.248 98.3681 188.365 100.201H188.371Z" fill="#D49684"/>
<path d="M197.556 95.0025C196.219 96.155 193.871 98.883 189.56 99.6187C187.911 99.9007 185.483 99.3121 184.526 98.4355C182.705 96.7619 180.093 91.7534 180.382 88.9579C180.535 87.4621 180.351 85.4759 180.645 83.6613C180.897 82.0858 180.792 80.0137 181.038 79.0206C181.841 75.7224 183.68 72.2649 186.476 71.7009C194.085 70.1499 204.116 77.6474 203.748 79.9831C203.399 82.1839 202.099 85.9418 201.517 88.8047C201.075 90.9626 199.824 93.053 197.568 95.0025H197.556Z" fill="#E7B2A1"/>
<path d="M188.156 77.8252L190.805 77.9662L194.367 74.4351L193.736 78.4995L195.011 78.7202C195.011 78.7202 195.354 76.5133 196.998 74.6128L196.814 78.9041C196.814 78.9041 198.745 80.3386 200.315 80.9087C201.884 81.4789 202.24 81.8467 202.24 81.8467L199.953 73.3377L194.864 70.8427L188.285 71.425L185.514 75.2014L188.156 77.8252Z" fill="#D49684"/>
<path d="M181.467 78.9225C181.792 77.5064 183.975 73.6688 183.975 73.6688L182.987 73.1232C181.406 72.2526 181.068 74.4289 179.977 76.2067L180.952 81.6566C181.455 80.2957 181.307 79.5968 181.467 78.9225Z" fill="#2A2D33"/>
<path d="M198.868 75.9554C199.597 77.7884 200.762 77.7577 202.019 79.0512C203.276 80.3447 202.455 88.0997 202.455 88.0997C202.455 88.0997 204.503 86.3341 205.575 83.6858C205.87 82.9624 207.047 81.2214 207.427 79.2167C208.2 75.1094 207.317 73.8956 206.035 72.9515C204.693 71.9645 202.884 72.3262 202.884 72.3262L198.874 75.9493L198.868 75.9554Z" fill="#2A2D33"/>
<path d="M201.958 85.4023C202.528 84.8751 204.018 83.8145 204.637 84.5686C205.257 85.3288 204.877 89.1357 203.43 90.7296C202.068 92.2193 200.284 91.6982 200.284 91.6982L201.075 86.6345L201.964 85.3962L201.958 85.4023Z" fill="#E7B2A1"/>
<path d="M201.112 77.1692C201.112 77.1692 200.266 80.9149 200.695 82.098C201.486 84.2804 200.903 88.7066 200.903 88.7066L202.731 84.826L204.239 81.534L201.106 77.1692H201.112Z" fill="#2A2D33"/>
<path d="M202.393 86.3954C202.927 85.3839 204.018 85.3349 204.098 86.0644C204.171 86.7939 203.773 86.9533 203.773 86.9533C203.773 86.9533 203.178 86.9901 202.773 87.597C201.927 88.8782 201.878 90.417 201.878 90.417C201.878 90.417 201.1 88.8476 202.393 86.3954Z" fill="#D49684"/>
<path d="M196.152 73.7423C197.188 74.9316 196.452 78.3524 195.919 78.9225C195.919 78.9225 200.566 80.688 202.252 79.9279C203.773 79.2413 204.325 77.0956 204.325 77.0956L202.651 73.491L198.377 72.222L196.152 73.7423Z" fill="#2A2D33"/>
<path d="M203.172 69.635C202.7 68.8625 200.076 66.2387 194.042 66.2142C189.646 66.1958 186.127 67.5384 184.533 68.789C181.749 70.9714 180.725 73.4481 179.983 76.2067L181.841 76.9363C181.927 76.8566 183.515 77.6658 188.15 77.8252C189.051 76.4397 191.112 74.8764 191.112 74.8764C190.308 75.9799 189.922 77.065 189.726 77.9232C191.271 78.0949 193.724 78.4995 193.724 78.4995C194.398 76.4152 196.795 74.3554 196.979 74.6067L202.504 75.0358L204.03 73.963C204.03 73.963 204.404 71.658 203.16 69.6288L203.172 69.635Z" fill="#2A2D33"/>
<path d="M190.173 81.1662C190.173 81.1662 190.37 80.4367 191.026 80.0505C191.026 80.0505 193.963 80.124 195.937 82.5946C195.937 82.5946 195.428 82.5455 195.232 82.4904C194.741 82.3555 192.148 80.9578 190.173 81.1601V81.1662Z" fill="#2A2D33"/>
<path d="M186.482 80.8107C186.482 80.8107 186.703 80.026 186.366 79.4252C186.366 79.4252 184.87 78.8796 182.074 80.1179C182.074 80.1179 182.16 80.4796 182.675 80.4306C183.196 80.3754 185.281 79.8175 186.482 80.8168V80.8107Z" fill="#2A2D33"/>
<path d="M188.046 84.5686C187.635 85.0161 187.255 85.4881 186.887 85.9602C186.513 86.4322 186.157 86.9165 185.802 87.4069L185.544 87.7748L185.415 87.9587C185.373 88.0384 185.33 88.1181 185.293 88.1977C185.274 88.2897 185.25 88.3817 185.25 88.4736C185.262 88.5656 185.262 88.6637 185.305 88.7372C185.366 88.9027 185.477 89.0315 185.593 89.1296C186.072 89.5219 186.341 89.6323 186.918 89.7242C186.918 89.7242 187.292 89.6752 187.046 89.528C186.801 89.3932 185.967 89.1112 185.796 88.9211C185.624 88.725 185.532 88.5043 185.624 88.302C185.655 88.2529 185.685 88.1978 185.71 88.1426L185.845 87.9587L186.108 87.597C186.452 87.1065 186.801 86.6161 187.12 86.1073C187.445 85.6046 187.764 85.0958 188.052 84.5624L188.046 84.5686Z" fill="#D49684"/>
<path d="M221.07 140.006C221.566 136.947 216.661 103.493 216.152 103.058C215.214 102.249 208.647 100.177 204.662 98.9688C202.577 103.248 199.567 105.933 194.508 106.148C191.357 106.282 187.095 104.719 185.158 101.93C178.659 103.787 176.856 104.768 176.856 104.768C176.856 104.768 174.667 111.499 175.464 112.823C176.261 114.154 176.77 131.791 176.556 140.931C176.451 145.253 174.459 158.004 174.066 163.749C180.982 167.739 194.625 166.538 196.256 166.734C198.12 166.955 206.465 167.323 211.676 168.861C217.789 170.67 220.745 173.655 221.063 173.306C222.345 171.939 220.272 144.916 221.063 140.018L221.07 140.006Z" fill="#447C68"/>
<path d="M207.139 99.7351C205.03 99.1466 203.853 98.693 203.853 98.693C202.222 102.843 197.856 106.197 192.614 105.78C186.905 105.326 186.059 101.372 186.059 101.372C185.146 101.715 184.073 102.077 183.165 102.537C183.852 104.069 186.053 106.098 187.531 106.908C189.149 107.797 192.442 108.397 194.312 108.263C197.531 108.036 203.184 107.643 207.145 99.729L207.139 99.7351Z" fill="white"/>
<path d="M192.307 84.9609C192.16 85.6598 191.688 86.1502 191.253 86.0583C190.817 85.9663 190.584 85.3287 190.731 84.6299C190.879 83.931 191.351 83.4406 191.786 83.5325C192.221 83.6245 192.454 84.2621 192.307 84.9609Z" fill="#2A2D33"/>
<path d="M185.244 83.508C185.097 84.2069 184.625 84.6973 184.189 84.6054C183.754 84.5134 183.521 83.8758 183.668 83.177C183.815 82.4781 184.287 81.9877 184.723 82.0796C185.158 82.1716 185.391 82.8092 185.244 83.508Z" fill="#2A2D33"/>
<path d="M185.967 148.705C184.735 148.41 181.461 148.606 179.529 148.803C177.598 148.999 176.905 148.974 176.034 149.054C175.158 149.14 174.925 149.722 175.642 150.096C176.359 150.464 177.328 150.997 180.014 150.685C182.699 150.372 186.286 150.317 186.286 150.317C186.286 150.317 186.636 148.858 185.973 148.698L185.967 148.705Z" fill="#E7B2A1"/>
<path d="M177.089 149.741C178.548 149.459 180.063 149.195 181.559 149.232C183.19 149.275 184.667 149.643 185.937 150.335C184.974 150.36 182.197 150.44 180.014 150.697C177.328 151.01 176.359 150.476 175.642 150.108C175.538 150.053 175.458 149.992 175.391 149.931C175.924 149.918 176.47 149.869 177.089 149.747V149.741Z" fill="#D38576"/>
<path d="M172.895 156.38C172.895 156.38 172.822 156.355 172.73 156.3L172.895 156.38Z" fill="#E7B2A1"/>
<path d="M172.049 154.253C172.098 153.879 173.435 152.72 174.305 152.052C175.489 151.144 176.519 150.66 178.046 150.188C179.419 149.759 183.429 148.649 184.398 148.613C186.335 148.539 188.009 149.232 189.168 149.477C190.259 149.71 192.601 150.924 193.926 150.924C195.747 150.924 203.411 149.171 203.411 149.171L202.442 155.589C202.442 155.589 199.236 156.073 198.163 156.202C195.299 156.545 193.552 157.704 190.921 157.845C188.285 157.986 187.255 156.907 186.127 156.809C184.999 156.717 183.116 157.042 182.129 157.422C181.142 157.796 179.658 158.728 178.91 158.728C178.162 158.728 177.954 157.833 177.954 157.833C177.954 157.833 176.881 158.115 176.157 158.489C175.434 158.863 174.404 158.256 174.446 157.551C174.446 157.551 173.79 158.164 173.269 157.974C172.754 157.784 172.515 157.22 172.895 156.374C172.895 156.374 174.526 154.872 175.299 154.271C176.065 153.67 177.414 152.898 177.739 152.708C178.064 152.518 180.014 152.058 180.014 152.058C180.014 152.058 178.769 152.187 177.868 152.315C177.298 152.401 177.046 152.536 176.617 152.806C175.71 153.376 175.047 153.817 173.944 154.473C173.367 154.81 171.951 155.001 172.055 154.246L172.049 154.253Z" fill="#E7B2A1"/>
<path d="M197.5 149.931C199.199 149.508 202.013 154.345 202.087 157.551C202.087 157.551 220.321 153.946 227.955 151.194C235.589 148.435 236.649 146.105 235.797 142.078C234.951 138.05 228.329 116.771 227.268 113.381C226.208 109.991 224.558 106.466 220.321 104.345C216.079 102.224 211.627 101.378 211.627 101.378C211.627 101.378 211.842 113.461 212.473 117.274C213.111 121.087 219.255 138.681 219.255 138.681L197.494 149.931H197.5Z" fill="#447C68"/>
<path d="M225.533 141.195C225.533 141.195 222.584 138.191 219.261 138.681" stroke="#396958" stroke-width="1.08" stroke-linecap="round" stroke-linejoin="round"/>
<path d="M176.856 104.762C173.901 106.252 172.037 108.134 170.302 109.954C164.44 116.116 158.241 125.593 155.09 130.228C151.012 136.235 148.008 140.312 148.008 142.887C148.008 145.462 149.939 151.255 149.939 151.255C149.939 151.255 152.729 148.466 155.948 148.036C159.167 147.607 163.79 149.63 163.79 149.63C163.79 149.63 163.575 144.64 163.79 143.353C164.005 142.065 169.891 136.168 172.681 133.808C175.47 131.448 181.314 127.009 181.314 127.009L176.856 104.756V104.762Z" fill="#447C68"/>
<path d="M172.368 157.177H163.392L154.409 125.765H161.239L172.368 157.177Z" fill="#B7ACAC"/>
<path d="M169.793 157.177H130.184L121.208 125.765H160.816L169.793 157.177Z" fill="#D1CBCB"/>
<path d="M169.719 156.466H129.828V158.807H169.719V156.466Z" fill="#D1CBCB"/>
<path d="M189.812 156.466H169.713V158.807H189.812V156.466Z" fill="#B7ACAC"/>
<path d="M185.557 91.2691C186.875 91.9618 190.909 91.4775 192.16 90.5764C192.16 90.5764 190.787 92.8691 188.408 92.7281C185.826 92.5749 185.557 91.2691 185.557 91.2691Z" fill="#2A2D33"/>
<path d="M176.746 119.481C176.746 119.481 177.635 135.855 176.881 142.433" stroke="#396958" stroke-width="1.08" stroke-miterlimit="10"/>
<path d="M212.479 117.274C213.117 121.087 219.261 138.681 219.261 138.681L197.5 149.931C199.199 149.508 202.013 154.345 202.087 157.551C202.087 157.551 220.321 153.946 227.955 151.194" stroke="#396958" stroke-width="1.08" stroke-linecap="round" stroke-linejoin="round"/>
<path d="M148.124 162.449H145.004L154.483 253.16H157.604L148.124 162.449Z" fill="#B48669"/>
<path d="M243.933 162.449H240.813L250.298 253.16H253.419L243.933 162.449Z" fill="#9C745B"/>
<path d="M92.2858 162.449H95.4067L85.9276 253.16H82.8067L92.2858 162.449Z" fill="#B48669"/>
<path d="M258.238 158.887H116.566V163.608H258.238V158.887Z" fill="#9C745B"/>
<path d="M141.564 158.887H72.1381V163.608H141.564V158.887Z" fill="#B48669"/>
<path d="M97.3504 157.342L136.959 157.355L141.877 124.655L103.586 124.649L97.3504 157.342Z" fill="#F4F4F4"/>
<path opacity="0.8" d="M97.3504 157.342L108.135 157.348L125.021 124.649L114.598 124.643L97.3504 157.342Z" fill="white"/>
<path opacity="0.8" d="M111.41 157.342L117.467 157.348L134.353 124.649L128.657 124.643L111.41 157.342Z" fill="white"/>
<path d="M141.423 124.649L134.366 157.348H136.941L142.336 125.483C142.41 125.047 142.073 124.649 141.631 124.649H141.417H141.423Z" fill="#B7ACAC"/>
<path d="M82.3407 158.985H136.174C136.808 158.985 137.321 158.472 137.321 157.839V157.79C137.321 157.157 136.808 156.643 136.174 156.643H82.3407C81.7075 156.643 81.1942 157.157 81.1942 157.79V157.839C81.1942 158.472 81.7075 158.985 82.3407 158.985Z" fill="#B7ACAC"/>
<path d="M66.5524 99.5267C67.2698 95.7627 67.3434 91.5633 67.3434 91.5633L70.8751 92.017L80.6056 93.2615C80.624 93.9665 80.4768 95.8301 80.3235 98.0922C80.25 99.0976 80.1764 100.183 80.1089 101.28C80.0783 101.948 80.1335 102.629 80.0108 103.278C79.7778 104.474 79.8453 104.67 79.6245 105.7C79.1218 108.06 83.2359 114.184 83.2053 114.724C83.2053 114.724 65.737 104.97 62.3218 103.738C62.3218 103.738 66.1845 101.501 66.5586 99.5267H66.5524Z" fill="#EBB6A4"/>
<path d="M89.0301 88.1487C87.8529 88.8047 87.2888 89.7549 87.3256 90.1595C87.3562 90.558 87.4727 95.0393 87.2091 95.873C86.9454 96.7128 86.2832 97.6263 84.3151 97.9267C84.0575 97.9635 83.8 97.988 83.5548 98.0186C82.3837 98.1719 80.9551 98.5458 80.1396 101.182C80.1334 101.213 80.1151 101.243 80.1028 101.28C79.6429 102.291 77.6073 100.109 75.7495 98.0125C74.5845 96.7067 73.4932 95.4316 72.8984 94.9841C72.0216 94.322 71.3656 93.2553 70.8689 92.0231C69.4526 88.5227 69.3667 83.7471 69.3667 83.7471L71.1694 76.2742L81.3352 72.5775L86.2403 73.7546C86.4978 73.9017 87.111 76.4213 87.111 76.4213C87.111 76.4213 87.626 81.3195 87.6321 82.5455C87.6444 83.7655 88.0552 84.9609 88.607 85.7333C89.1527 86.5119 90.2012 87.4928 89.0301 88.1487Z" fill="#EBB6A4"/>
<path d="M78.3186 88.6085C79.1769 87.8606 79.2689 86.0276 79.0788 85.01C78.8888 83.9985 78.0733 82.2329 79.4651 80.9884C80.8569 79.744 77.5092 76.2251 77.5092 76.2251C77.5092 76.2251 81.2494 74.3492 83.4015 74.0734C85.5475 73.7975 87.1171 76.4213 87.1171 76.4213C87.1171 76.4213 88.4292 75.1339 88.3924 73.5891C88.3434 71.8358 86.3445 69.8005 80.2561 68.8748C75.4491 68.1392 69.0847 68.4518 66.9878 69.1016C63.3764 70.2174 61.8374 71.9461 62.5425 75.4343C62.5425 75.4343 60.6172 76.409 59.5872 78.5731C58.2751 81.3317 58.4529 85.8008 61.3223 88.8598C63.5848 91.2691 64.6578 92.6668 65.5407 94.1381C66.4359 95.6339 66.8161 97.7244 66.8161 97.7244C66.8161 97.7244 70.8383 97.8776 73.0946 95.5787C74.8053 93.8377 75.1425 89.4913 75.1425 89.4913L75.6453 84.8138L78.3247 88.6085H78.3186Z" fill="#4E2100"/>
<path d="M77.0923 85.2858C75.5778 83.5938 73.1375 83.9985 73.4257 86.4751C73.6648 88.5411 74.6275 88.9211 76.1726 90.5886C77.221 91.7227 78.1285 91.1342 78.1714 90.558C78.3002 88.9211 78.0304 86.3403 77.0923 85.292" fill="#E7B2A1"/>
<path d="M77.3805 88.9641C77.5399 89.3932 77.638 89.7058 77.7974 90.0185C77.9261 89.8775 77.6748 89.5219 77.5215 88.774C77.3069 87.7073 77.5644 88.7618 77.2149 87.7319C76.8654 86.7019 76.5895 86.0705 75.8353 85.7456C75.0321 85.3962 74.3209 85.9724 74.3209 85.9724C75.9764 86.5793 76.9267 87.7318 77.3805 88.9641Z" fill="#D38576"/>
<path d="M87.4175 90.8338C87.4175 90.8338 86.1913 90.9013 85.5168 90.6254C85.5168 90.6254 85.8295 92.4829 87.393 92.2438L87.4175 90.8277V90.8338Z" fill="white"/>
<path d="M85.7375 79.18C86.1545 79.0022 86.6082 78.8919 87.0129 79.1003C87.2029 79.1984 87.1784 79.8175 87.1784 79.8175C86.8289 79.5539 86.4304 79.4988 85.9766 79.6643C85.4555 79.8543 85.1673 80.216 85.1673 80.216C85.1183 79.7624 85.3206 79.3578 85.7375 79.18Z" fill="#4E2100"/>
<path d="M86.3875 82.4107C86.4304 82.9808 86.6695 83.4222 86.9209 83.4038C87.1723 83.3854 87.344 82.9072 87.301 82.3432C87.2581 81.7731 87.019 81.3317 86.7676 81.3501C86.5162 81.3685 86.3445 81.8467 86.3875 82.4107Z" fill="#4E2100"/>
<path d="M80.1396 101.182C80.1335 101.213 80.1151 101.243 80.1028 101.28C80.0967 101.452 80.0844 101.617 80.0783 101.789C79.9924 101.537 79.9066 101.274 79.8208 101.01C79.2996 99.3428 78.2879 98.1535 77.6073 96.5841C77.2149 95.6829 77.0678 94.7082 76.9819 93.7274C77.6012 95.0944 78.3983 96.1305 80.2009 96.9029C81.0777 97.2769 82.5676 97.9328 83.5548 98.0247C82.3775 97.9205 80.9551 98.552 80.1396 101.188V101.182Z" fill="#D38576"/>
<path d="M67.4169 222.116L61.3837 225.04L51.3956 238.521L62.6467 253.013H73.8978C73.8978 253.013 73.5974 250.23 72.2607 249.28C70.9241 248.323 67.4108 245.957 67.4108 245.957L66.2029 240.679L74.56 227.964L67.4108 222.122L67.4169 222.116Z" fill="#272C34"/>
<path d="M87.1662 230.208L81.8441 236.412C81.8441 236.412 79.3609 244.743 79.3609 245.454C79.3609 246.165 78.294 250.42 78.4718 251.48C78.6497 252.547 78.4718 253.785 79.5387 253.785C80.6056 253.785 104.193 252.719 104.193 252.719C104.193 252.719 104.371 250.058 100.643 248.464C97.798 247.244 93.1933 244.21 92.8377 243.676C92.4821 243.143 94.7875 230.38 94.7875 230.38L87.16 230.202L87.1662 230.208Z" fill="#272C34"/>
<path d="M78.7539 194.922L61.3898 225.04C61.3898 225.04 64.0815 234.315 74.56 234.916C74.56 234.916 91.6175 212.412 97.007 206.723C102.397 201.04 100.9 192.659 100.9 192.659L78.7539 194.922Z" fill="#4E514E"/>
<path d="M46.6132 174.667C53.8175 173.355 68.0362 166.415 69.0234 165.434C70.0105 164.454 95.0389 167.016 101.728 168.886C109.717 171.117 113.102 174.011 113.758 178.927C114.414 183.838 108.516 203.817 104.917 214.625C101.311 225.432 97.6263 236.246 97.6263 236.246C97.6263 236.246 88.9381 240.679 81.8441 236.424C81.8441 236.424 87.5586 201.199 88.2146 196.289C88.2146 196.289 75.7679 197.601 64.3022 194.652C52.8365 191.703 46.6132 174.679 46.6132 174.679V174.667Z" fill="#4E514E"/>
<path d="M61.8374 105.197C62.3218 103.99 63.0453 100.127 67.3863 99.6493C71.7273 99.165 78.9685 100.373 80.1764 101.341C81.3842 102.304 81.6234 110.991 81.6234 110.991L61.8374 105.197Z" fill="#CF9636"/>
<path d="M46.5518 177.315C58.8024 176.114 75.2345 165.324 75.2345 165.324C75.2345 165.324 76.7121 160.585 78.8336 154.228C80.9551 147.865 82.8374 143.629 84.2537 137.737C85.6701 131.846 89.2018 113.467 88.4967 110.641C87.7915 107.815 85.198 105.927 82.1323 104.75C79.0666 103.573 64.9276 101.685 57.3921 103.101C49.8505 104.517 46.791 116.293 43.4861 123.362C40.1875 130.43 33.5901 162.706 33.118 167.421C32.6459 172.135 34.5343 178.492 46.5518 177.315Z" fill="#EBAB3E"/>
<path d="M81.8441 236.412L88.2085 196.276" stroke="#444644" stroke-width="1.53" stroke-miterlimit="10"/>
<path d="M61.6167 198.759H57.6067V241.684H61.6167V198.759Z" fill="#268AFF"/>
<path d="M59.2929 227.173H59.9305C61.537 227.173 62.8368 228.473 62.8368 230.079V243.131C62.8368 243.891 62.2175 244.51 61.4573 244.51H57.7662C57.0059 244.51 56.3866 243.891 56.3866 243.131V230.079C56.3866 228.473 57.6864 227.173 59.2929 227.173Z" fill="#268AFF"/>
<path d="M59.6178 243.057C59.1457 243.057 58.7656 243.437 58.7656 243.909V249.414C58.7656 249.887 59.1457 250.267 59.6178 250.267C60.0899 250.267 60.4701 249.887 60.4701 249.414V243.909C60.4701 243.437 60.0899 243.057 59.6178 243.057Z" fill="#268AFF"/>
<path d="M64.946 203.014H54.2896C52.812 203.014 51.4815 202.131 50.9051 200.776L49.4765 197.423C48.4464 194.995 50.2245 192.304 52.861 192.304H66.3746C69.0111 192.304 70.7953 194.995 69.7591 197.423L68.3305 200.776C67.7542 202.137 66.4175 203.014 64.946 203.014Z" fill="#268AFF"/>
<path d="M79.6552 251.113C79.6552 252.706 78.3615 254 76.7673 254C75.1732 254 73.8794 252.706 73.8794 251.113C73.8794 249.519 75.1732 248.225 76.7673 248.225C78.3615 248.225 79.6552 249.519 79.6552 251.113Z" fill="#268AFF"/>
<path d="M62.4996 251.113C62.4996 252.706 61.2059 254 59.6117 254C58.0175 254 56.7238 252.706 56.7238 251.113C56.7238 249.519 58.0175 248.225 59.6117 248.225C61.2059 248.225 62.4996 249.519 62.4996 251.113Z" fill="#268AFF"/>
<path d="M39.5743 251.113C39.5743 252.706 40.868 254 42.4622 254C44.0564 254 45.3501 252.706 45.3501 251.113C45.3501 249.519 44.0564 248.225 42.4622 248.225C40.868 248.225 39.5743 249.519 39.5743 251.113Z" fill="#268AFF"/>
<path d="M43.5536 252.333L41.8491 251.56C44.9822 244.633 51.7819 240.329 59.5933 240.329C67.4047 240.329 74.1983 244.633 77.3253 251.56L75.6208 252.333C72.8003 246.086 66.6567 242.205 59.5933 242.205C52.5238 242.205 46.3802 246.086 43.5536 252.333Z" fill="#268AFF"/>
<path d="M73.3521 190.692C60.1022 193.567 56.3989 177.248 55.1787 158.121C54.7066 150.771 54.3939 142.636 54.7679 131.264C55.1051 120.922 48.845 113.412 37.3486 114.056C37.3486 114.056 45.8713 141.176 47.1711 155.797C48.471 170.418 45.718 181.704 53.6704 190.232C61.6228 198.759 73.3521 190.692 73.3521 190.692Z" fill="#1E6FCD"/>
<path d="M67.4047 188.993C57.4964 187.755 52.2724 167.427 50.6476 152.223C49.8812 145.1 47.4409 130.283 47.165 125.225C46.8891 120.119 45.4114 114.258 36.4596 113.97C27.0172 113.663 16.3241 114.258 11.9647 114.27C3.65666 114.283 3.14162 119.236 4.699 123.11C8.24907 131.926 6.58746 167.813 13.1051 181.931C19.6228 196.056 28.8567 199.311 54.3878 199.311C79.9188 199.311 93.0707 198.25 96.0934 196.534C99.3737 194.67 102.022 189.325 97.2891 189.006C93.9904 188.785 71.758 189.551 67.4108 189.006L67.4047 188.993Z" fill="#268AFF"/>
<path d="M96.6943 152.683C94.6955 152.15 93.5612 152.285 93.0277 153.351C92.4943 154.418 91.5623 155.552 91.5623 156.086C91.5623 156.619 93.1626 156.619 93.6286 156.484C94.0946 156.349 94.8304 156.815 95.4987 156.686C96.167 156.551 98.7667 156.355 98.7667 156.355L96.7005 152.689L96.6943 152.683Z" fill="#EBB6A4"/>
<path d="M75.0505 114.485C75.6146 109.151 82.9478 104.75 82.9478 104.75C82.9478 104.75 88.9013 106.436 92.4453 111.91C95.9892 117.385 102.433 131.883 105.333 138.001C108.234 144.119 109.785 148.551 110.429 151.451C111.072 154.351 110.484 159.58 101.79 158.936C93.0891 158.293 87.6137 143.15 82.1384 135.745C76.6631 128.339 74.4067 120.609 75.0505 114.485Z" fill="#EBAB3E"/>
<path d="M87.0864 143.573C87.0864 143.573 80.5443 131.515 78.8152 125.752" stroke="#CF9636" stroke-width="1.41" stroke-miterlimit="10"/>
</g>
<path d="M0 253.884H282.398" stroke="#B2D3FB" stroke-width="2.12" stroke-miterlimit="10"/>
<defs>
<clipPath id="clip0_682_1114">
<rect width="273" height="254" fill="white" transform="translate(4)"/>
</clipPath>
</defs>
</svg>
