<svg width="262" height="255" viewBox="0 0 262 255" fill="none" xmlns="http://www.w3.org/2000/svg">
<path d="M242.468 253.206H17.2326C18.3571 222.352 16.8906 186.878 17.4876 152.274C18.0847 117.577 18.16 88.6703 18.16 49.1391C18.16 34.37 24.3737 13.8451 41.8034 7.38212C59.4765 0.832228 107.586 0.461261 126.755 0.200425C145.796 -0.0546149 198.195 -0.98783 216.593 5.30122C232.37 10.6918 240.404 24.6785 241.923 41.7082C244.908 75.1416 244.398 115.125 243.975 148.529L242.462 253.212L242.468 253.206Z" fill="#DAEBFF"/>
<path d="M0 253.206H259.068" stroke="#B2D3FB" stroke-width="2.22" stroke-miterlimit="10"/>
<path d="M57.6332 149.423H54.9785L49.7212 254.001H52.3759L57.6332 149.423Z" fill="#B2D3FB"/>
<path d="M204.2 149.423H206.855L212.112 254.001H209.457L204.2 149.423Z" fill="#B2D3FB"/>
<path d="M45.8666 149.423H43.2118L37.9545 254.001H40.6093L45.8666 149.423Z" fill="#B2D3FB"/>
<path d="M215.671 149.423H218.326L223.583 254.001H220.928L215.671 149.423Z" fill="#B2D3FB"/>
<path d="M232.724 143.504H28.8195V150.506H232.724V143.504Z" fill="#B2D3FB"/>
<path d="M217.045 107.555C218.975 107.77 221.398 107.057 222.546 106.72C224.012 106.291 225.6 106.251 226.313 106.251C226.806 106.251 226.748 105.579 225.728 105.266C224.58 104.918 221.537 104.999 220.453 105.387C219.369 105.776 217.039 107.561 217.039 107.561L217.045 107.555Z" fill="#EBA398"/>
<path d="M186.063 240.675C186.063 240.675 185.918 245.445 185.681 247.149C185.605 247.717 185.234 248.813 185.165 249.387C185.072 250.146 184.875 252.308 185.414 252.847L194.955 252.76L208.553 252.847C208.553 252.847 209.921 251.381 207.081 249.862C204.189 248.314 197.001 244.889 197.001 244.889L195.245 239.608L186.069 240.669L186.063 240.675Z" fill="#404040"/>
<path d="M208.883 252.847C208.883 252.847 209.324 251.961 208.883 251.166H185.055C185.055 251.166 184.776 252.21 185.42 252.847H208.883Z" fill="white"/>
<path d="M169.538 240.675C169.538 240.675 169.393 245.445 169.155 247.149C169.074 247.717 168.709 248.813 168.639 249.387C168.547 250.146 168.35 252.308 168.889 252.847L178.429 252.76L186.521 252.847C186.521 252.847 187.889 251.381 185.049 249.862C182.157 248.314 180.476 244.889 180.476 244.889L178.719 239.608L169.544 240.669L169.538 240.675Z" fill="#404040"/>
<path d="M186.851 252.847C186.851 252.847 187.292 251.961 186.851 251.166H168.529C168.529 251.166 168.251 252.21 168.894 252.847H186.851Z" fill="white"/>
<path d="M185.652 241.654C185.414 236.866 183.855 177.083 183.571 172.312C183.269 167.269 184.255 148.982 184.255 148.982L188.892 131.697L200.38 129.042C200.38 129.042 203.076 159.131 202.154 171.564C201.331 182.67 199.238 232.333 198.021 241.353C196.74 241.596 187.53 242.355 185.652 241.654Z" fill="#444968"/>
<path d="M184.678 173.79C183.623 177.338 183.75 192.785 183.142 201.914C181.606 224.908 181.125 242.031 181.125 242.031C178.899 242.013 173.369 241.932 171.167 241.747C170.575 241.7 169.984 241.631 169.399 241.561C169.451 238.182 167.747 218.561 166.953 199.665C166.512 189.22 164.037 166.098 163.939 160.435C163.649 143.62 165.579 132.219 165.579 132.219L193.175 129.332L188.411 156.453C187.095 163.397 185.802 170.017 184.678 173.796V173.79Z" fill="#444968"/>
<path d="M178.389 62.6389C178.493 65.7399 177.844 67.247 177.311 68.783C176.778 70.3191 171.039 73.6288 171.039 73.6288C171.039 73.6288 187.988 89.3427 194.207 89.0935C200.427 88.8442 191.124 72.6608 191.124 72.6608C191.124 72.6608 188.48 71.1711 187.878 69.5192C187.275 67.8672 186.852 64.1112 186.852 64.1112L179.357 55.15L178.389 62.6331V62.6389Z" fill="#EBA398"/>
<path d="M179.687 68.5626C179.038 68.1859 178.412 67.7743 177.821 67.299C178.18 66.1455 178.464 64.766 178.389 62.6387L179.357 55.1556L186.852 64.1168C186.852 64.1168 187.275 67.8729 187.878 69.5248C187.953 69.7335 188.063 69.9364 188.191 70.1334C183.716 70.7131 181.861 69.519 179.681 68.5626H179.687Z" fill="#D4877B"/>
<path d="M193.106 76.394L195.059 73.7102C195.059 73.7102 199.818 75.0724 202.2 78.2372C204.583 81.402 208.403 99.4635 208.803 100.356C209.202 101.249 209.962 106.245 209.591 107.028C209.22 107.81 206.09 113.485 204.032 113.525C201.974 113.572 200.085 108.332 197.517 102.472C194.943 96.6117 193.1 76.3997 193.1 76.3997L193.106 76.394Z" fill="#697AD3"/>
<path d="M199.94 111.589C200.38 114.76 202.421 120.005 206.524 120.104C208.518 120.156 214.616 114.864 216.413 112.064C219.358 107.462 218.233 105.88 218.233 105.88C218.233 105.88 214.454 107.311 214.378 103.99C214.378 103.99 206.814 104.141 206.003 105.352C205.191 106.564 199.94 111.595 199.94 111.595V111.589Z" fill="#697AD3"/>
<path d="M203.58 109.392C203.58 109.392 208.802 105.659 210.825 105.242" stroke="#5468CC" stroke-width="1.18" stroke-miterlimit="10"/>
<path d="M210.831 105.242C210.298 107.381 211.811 109.844 214.129 109.966C218.082 110.181 218.065 107.474 217.758 105.306L210.831 105.242Z" fill="#4C5CB9"/>
<path d="M164.959 136.908C164.136 138.907 163.666 141.023 164.136 141.614C164.605 142.2 176.835 143.26 185.188 143.376C193.535 143.492 200.827 142.084 201.771 140.2C202.71 138.316 200.948 134.322 200.948 134.322L164.964 136.908H164.959Z" fill="#F7EDE6"/>
<path d="M175.491 70.7713C175.491 70.7713 166.332 75.9764 164.907 77.4023C161.991 80.3179 161.933 85.7317 162.165 89.8297C162.362 93.2728 163.034 125.466 163.243 135.569C163.284 137.453 164.547 139.081 166.361 139.586C167.724 139.962 169.463 140.374 171.399 140.646C176.662 141.388 185.988 141.684 189.941 141.168C194.688 140.542 198.653 139.389 201.221 138.49C203.087 137.835 204.258 136.004 204.061 134.039C202.983 123.46 199.575 90.1485 199.018 86.7171C198.357 82.6364 195.059 73.7216 195.059 73.7216L190.457 72.2552C190.289 73.8492 187.988 74.9563 184.185 74.9099C179.734 74.8519 175.497 70.7887 175.497 70.7887L175.491 70.7713Z" fill="#697AD3"/>
<path d="M175.949 70.1164C175.949 70.1164 178.98 73.4029 184.278 74.8926C184.278 74.8926 182.846 75.0781 181.867 75.7157C180.939 76.3185 180.249 77.4951 180.887 79.0775C180.887 79.0775 177.357 77.2111 175.456 73.5014C174.615 71.8611 174.569 70.8757 174.569 70.8757L175.943 70.1164H175.949Z" fill="#F7EDE6"/>
<path d="M189.529 71.0845C190.074 71.6583 190.683 72.1452 191.402 72.4756C191.321 72.6785 191.234 72.8871 191.123 73.1132C189.327 76.9388 186.776 78.6603 186.776 78.6603C187.037 77.2344 186.823 76.5504 186.139 75.6462C185.826 75.2347 184.469 74.8869 184.469 74.8869C187.785 73.8203 188.486 72.3365 189.529 71.0787V71.0845Z" fill="#F7EDE6"/>
<path d="M190.335 46.7803C192.364 49.5046 192.526 53.1563 192.422 55.1503C192.318 57.1384 192.532 57.3123 192.857 59.8453C193.28 63.1492 191.871 66.5517 189.448 68.2558C186.417 70.3831 181.299 68.4703 179.177 65.3866C177.89 63.5144 175.891 60.593 175.369 58.9411C174.847 57.2891 173.097 51.7594 175.033 49.1336C176.969 46.5079 180.887 45.9746 184.956 46.1833C189.031 46.3862 189.483 45.6384 190.341 46.7861L190.335 46.7803Z" fill="#EBA398"/>
<path d="M177.015 54.3559C177.015 54.3559 178.54 52.1649 178.748 50.3622C178.945 48.6581 178.395 47.3076 178.395 47.3076C178.395 47.3076 180.319 47.7307 181.299 47.8466C188.434 48.6987 190.59 47.2264 190.59 47.2264C190.59 47.2264 195.094 43.5283 191.581 40.3635C189.744 38.7058 189.564 41.233 187.17 41.6503C182.029 42.5429 180.916 41.204 177.508 41.6503C173.253 42.2068 174.557 44.9542 174.557 44.9542C174.557 44.9542 172.413 45.5455 171.561 48.0031C170.68 50.5535 171.364 52.4663 172.529 55.2486C174.105 59.0162 177.299 60.7435 177.299 60.7435L176.708 57.2367L177.554 56.431L177.027 54.3617L177.015 54.3559Z" fill="#302426"/>
<path d="M185.403 50.8895C185.403 50.8895 182.528 50.5128 179.844 52.5125C179.844 52.5125 180.354 52.5415 180.557 52.5241C181.073 52.4719 184.029 51.5677 185.884 52.0546C185.884 52.0546 185.918 51.3532 185.403 50.8895Z" fill="#302426"/>
<path d="M188.724 51.8342C188.724 51.8342 188.538 51.2488 188.845 50.6865C188.845 50.6865 190.196 50.0083 192.758 51.1154C192.758 51.1154 192.683 51.4574 192.207 51.4169C191.732 51.3763 189.964 51.1154 188.724 51.8342Z" fill="#302426"/>
<path d="M182.081 55.2774C182.139 55.857 182.464 56.2975 182.806 56.2627C183.148 56.228 183.38 55.7295 183.322 55.1498C183.264 54.5702 182.939 54.1297 182.597 54.1644C182.255 54.1992 182.023 54.6977 182.081 55.2774Z" fill="#302426"/>
<path d="M189.657 54.5409C189.715 55.1205 190.04 55.5611 190.382 55.5263C190.724 55.4915 190.956 54.993 190.898 54.4134C190.84 53.8338 190.515 53.3932 190.173 53.428C189.831 53.4628 189.599 53.9613 189.657 54.5409Z" fill="#302426"/>
<path d="M176.302 56.8545C174.807 55.6315 172.645 56.1937 173.103 58.1703C173.485 59.8165 174.378 60.0309 175.902 61.2308C176.934 62.0423 177.705 61.4858 177.699 61.0105C177.682 59.6716 177.235 57.6139 176.308 56.8545H176.302Z" fill="#EBA398"/>
<path d="M186.753 55.0636C187.217 55.4751 187.646 55.9156 188.075 56.3619C188.503 56.8025 188.915 57.2604 189.327 57.7241L189.628 58.0719L189.779 58.2458C189.831 58.3211 189.883 58.4023 189.929 58.4776C189.958 58.5704 189.993 58.6631 190.005 58.7558C190.005 58.8486 190.016 58.9471 189.976 59.0283C189.929 59.2022 189.831 59.3413 189.721 59.4572C189.274 59.9035 189.014 60.0484 188.434 60.1991C188.434 60.1991 188.051 60.1875 188.283 60.0136C188.515 59.8513 189.332 59.4804 189.495 59.2659C189.651 59.0515 189.721 58.8196 189.611 58.6167C189.57 58.5704 189.541 58.5182 189.506 58.466L189.356 58.2921L189.048 57.9501C188.648 57.4864 188.248 57.0227 187.866 56.5416C187.483 56.0605 187.107 55.5794 186.759 55.0636H186.753Z" fill="#D4877B"/>
<path d="M175.12 56.9932C174.395 56.5875 173.926 57.1729 173.862 57.8047C173.798 58.4365 173.96 58.0598 174.366 57.6366C174.772 57.2135 175.462 58.0482 175.531 58.6452C175.63 59.4625 176.14 60.4247 176.859 60.3667C177.577 60.3087 177.16 60.1233 176.876 59.2828C176.598 58.4423 176.917 59.2712 176.517 58.4713C176.122 57.6714 175.74 57.3468 175.12 56.999V56.9932Z" fill="#D4877B"/>
<path d="M199.012 86.7056C199.012 86.7056 201.87 112.981 202.154 117.861" stroke="#5468CC" stroke-width="1.18" stroke-miterlimit="10"/>
<path d="M189.147 61.8741C188.457 62.3494 187.014 62.929 185.75 62.4595C185.75 62.4595 186.266 64.1405 187.866 63.6188C189.187 63.1841 189.147 61.8741 189.147 61.8741Z" fill="#302426"/>
<path d="M187.199 152.315C187.802 147.736 183.808 178.41 182.214 186.641" stroke="#3D415B" stroke-width="1.18" stroke-miterlimit="10"/>
<path d="M195.158 104.078H202.102L209.046 79.7792H204.867C204.206 79.7792 203.62 80.1966 203.4 80.8168L195.158 104.078Z" fill="#B7ACAC"/>
<path d="M196.584 103.695L227.785 104.078L234.515 80.5269C234.619 80.1502 234.341 79.7792 233.953 79.7792H205.238C204.983 79.7792 204.756 79.9473 204.675 80.1908L196.584 103.695Z" fill="#D1CBCB"/>
<path d="M227.026 105.341H196.468V103.527H228.064V104.303C228.064 104.871 227.6 105.335 227.032 105.335L227.026 105.341Z" fill="#D1CBCB"/>
<path d="M196.462 105.341H182.307C181.954 105.341 181.664 105.052 181.664 104.698V104.176C181.664 103.823 181.954 103.533 182.307 103.533H196.462C196.873 103.533 197.21 103.869 197.21 104.281V104.599C197.21 105.011 196.873 105.347 196.462 105.347V105.341Z" fill="#B7ACAC"/>
<path d="M183.635 99.2604C183.756 98.5765 186.301 96.5941 186.423 96.6347C186.544 96.6753 188.08 96.7564 189.292 97.7244C190.503 98.6924 192.121 100.188 192.242 100.878C192.364 101.562 191.674 101.805 190.382 100.715C189.089 99.6256 187.431 98.5765 186.747 98.5765C186.063 98.5765 183.635 99.2604 183.635 99.2604Z" fill="#E9A090"/>
<path d="M179.687 108.1C180.464 107.689 177.601 104.054 175.734 103.052C173.873 102.049 173.143 101.875 172.981 102.512C172.819 103.15 173.729 105.156 175.827 106.871C177.931 108.593 179.681 108.094 179.681 108.094L179.687 108.1Z" fill="#4C5CB9"/>
<path d="M171.717 104.982C171.717 104.982 173.636 102.199 174.192 101.086C174.749 99.9736 176.789 98.7332 179.392 97.7478C181.988 96.7566 186.446 95.9509 187.808 97.1276C189.17 98.3042 191.645 101.707 191.831 102.512C192.016 103.318 191.338 103.376 190.718 103.133C190.098 102.883 189.292 101.463 188.863 101.029C188.428 100.594 187.501 99.7939 187.501 99.7939C187.501 99.7939 188.428 101.22 188.799 101.898C189.17 102.576 189.976 103.753 189.234 104.066C188.492 104.379 188.121 103.88 187.686 102.953C187.252 102.025 185.46 100.292 185.46 100.292C185.46 100.292 186.573 101.84 186.759 102.333C186.944 102.825 187.13 103.382 186.573 103.567C186.017 103.753 185.46 103.446 184.84 102.518C184.22 101.591 183.542 101.527 183.542 101.527C183.542 101.527 182.493 103.196 180.632 103.567C179.044 103.886 177.601 103.875 177.601 103.875C177.044 104.924 175.682 108.332 175.682 108.332L171.723 104.993L171.717 104.982Z" fill="#EBA398"/>
<path d="M164.907 77.4025C161.156 80.3992 158.252 86.5665 156.815 94.7684C155.377 102.97 154.618 116.418 157.081 119.907C159.545 123.397 162.774 122.927 165.898 121.959C169.028 120.991 169.59 113.757 169.59 113.757C169.59 113.757 169.822 98.9302 171.028 94.4786C173.839 84.0799 164.907 77.4083 164.907 77.4083V77.4025Z" fill="#697AD3"/>
<path d="M168.193 87.952C168.68 89.0939 170.639 93.1745 170.152 98.2289C169.665 103.289 167.706 109.978 167.706 109.978" stroke="#5468CC" stroke-width="1.18" stroke-miterlimit="10"/>
<path d="M172.981 102.513C172.894 102.941 175.56 106.124 177.276 107.155C178.992 108.187 179.682 108.1 179.682 108.1C179.682 108.1 173.062 119.015 169.022 120.991C164.982 122.968 161.18 123.072 160.148 120.151C159.116 117.229 158.403 113.166 158.403 113.166C158.403 113.166 162.779 110.303 165.388 108.025C168.495 105.306 172.975 102.518 172.975 102.518L172.981 102.513Z" fill="#697AD3"/>
<path d="M165.393 108.019C168.5 105.301 172.981 102.513 172.981 102.513C172.894 102.941 175.56 106.124 177.276 107.155C178.992 108.187 179.682 108.1 179.682 108.1C179.682 108.1 173.062 119.015 169.022 120.991C164.982 122.968 159.128 123.623 157.076 119.907" stroke="#5468CC" stroke-width="1.18" stroke-miterlimit="10"/>
<path d="M212.727 105.346C212.727 105.346 212.135 106.187 213.793 106.975C216.355 108.187 219.723 107.335 220.859 106.79C221.995 106.245 222.406 105.294 222.406 105.294L212.727 105.346Z" fill="#EBA398"/>
<path d="M213.764 105.341C213.764 105.341 214.506 105.091 215.323 104.691C215.938 104.39 217.074 104.274 217.642 103.19C218.152 102.216 218.256 101.492 218.958 101.573C219.56 101.637 219.543 102.321 219.543 102.321C219.543 102.321 219.711 101.932 219.792 101.538C219.897 100.999 220.146 100.935 220.552 100.866C220.911 100.802 221.299 101.092 221.462 101.393C221.659 101.764 221.583 102.176 221.583 102.176C221.583 102.176 221.804 101.37 221.92 101.132C222.146 100.686 222.476 100.576 222.917 100.634C223.357 100.692 223.49 101.306 223.531 101.776C223.56 102.118 223.531 102.86 223.531 102.86C223.531 102.86 223.577 101.805 224.429 101.927C225.009 102.014 225.125 103.092 225.032 103.857C224.957 104.471 224.777 104.732 224.337 105.242C223.288 106.459 216.639 106.911 214.97 106.326C213.3 105.741 213.764 105.341 213.764 105.341Z" fill="#EBA398"/>
<path d="M217.468 107.311C216.315 108.222 214.906 109.247 214.906 109.247C214.906 109.247 212.669 109.323 211.927 107.793C211.185 106.262 211.335 105.335 211.335 105.335H213.758L217.468 107.306V107.311Z" fill="#EBA398"/>
<path d="M192.387 51.8637C191.309 51.9159 189.599 51.9565 188.985 52.368C188.44 52.7332 188.562 53.0694 187.837 53.1216C187.205 53.1737 187.147 52.8317 186.55 52.5593C185.878 52.2521 183.316 52.5419 182.243 52.6578C181.171 52.7738 179.693 53.11 179.699 53.6026C179.699 53.8693 179.751 54.2345 179.832 54.5417C179.902 54.8025 180.447 54.9068 180.545 54.9706C180.76 55.1097 180.76 55.927 181.171 57.0689C181.699 58.5411 183.438 58.744 185.356 58.3325C187.118 57.9499 186.933 56.0081 187.089 55.1677C187.223 54.4489 187.107 54.2345 187.912 54.1707C188.706 54.1069 188.608 54.3446 188.857 55.0286C189.141 55.8285 189.28 57.55 191.077 57.55C192.886 57.55 193.181 56.5472 193.233 54.9764C193.268 53.9041 193.257 53.1563 193.112 52.5245C193.025 52.1362 192.804 51.8348 192.387 51.8579V51.8637ZM186.515 56.1009C186.434 57.2022 186.446 57.9499 184.695 58.0832C183.42 58.1818 181.797 58.1296 181.449 56.5646C181.09 54.9474 181.084 54.1881 181.281 53.8403C181.478 53.4925 182.991 53.4056 184.377 53.3418C185.762 53.2781 186.22 53.2549 186.428 53.8867C186.504 54.1185 186.591 54.9996 186.515 56.1009ZM192.793 55.0807C192.793 56.6863 192.242 57.0573 191.692 57.2022C190.376 57.5384 189.819 56.9356 189.57 55.8574C189.321 54.7793 189.269 53.8983 189.309 53.6548C189.419 52.9998 189.872 52.9071 191.251 52.797C192.051 52.7332 192.347 52.6462 192.515 52.9535C192.718 53.3244 192.793 54.02 192.793 55.0749V55.0807Z" fill="#302426"/>
<path d="M179.948 53.4518C178.876 53.6663 175.102 56.2631 175.102 56.2631L175.96 56.5703C175.96 56.5703 177.601 56.1935 177.873 55.9617C178.146 55.7298 178.389 55.127 178.754 54.9763C179.119 54.8198 180.319 54.188 180.319 54.188L179.948 53.4518Z" fill="#302426"/>
<path d="M73.4224 235.382H65.7654V244.807H73.4224V235.382Z" fill="#EBA398"/>
<path d="M90.2319 235.382H82.575V244.807H90.2319V235.382Z" fill="#EBA398"/>
<path d="M41.0903 75.0029C40.9281 74.3653 40.76 73.7567 40.6208 73.3509C40.2905 72.354 39.0384 70.1282 38.7892 69.6123C38.5399 69.0964 39.2007 68.6443 40.047 69.4152C40.4991 69.8267 40.9454 70.6498 41.27 71.2063C41.357 71.3512 41.4497 71.5425 41.5425 71.7395C41.5772 70.418 41.7222 68.7023 41.7106 68.3777C41.6874 67.6125 41.386 65.578 41.2526 64.7897C41.1135 64.0072 42.0236 63.8333 42.667 64.5694C43.3104 65.3056 43.2756 66.0591 43.5828 67.0213C43.89 67.9835 43.8842 69.9369 43.8842 69.9369L44.261 68.7602C44.6377 67.5836 45.3797 64.9868 45.2869 64.1231C45.1942 63.2595 45.4608 62.4943 46.2491 62.9407C47.0374 63.387 47.0142 64.0826 46.9968 65.2128C46.9795 66.3431 46.9968 66.5228 46.7824 67.7922C46.6027 68.8182 46.6085 69.6992 46.3071 70.9396C46.8172 70.5107 48.2605 70.1397 48.8169 70.1919C50.2486 70.3194 51.2977 71.2237 51.8832 71.9192C52.457 72.6032 53.5409 73.2234 52.5034 73.6118C51.4658 74.0001 50.8282 72.7481 49.7675 72.4409C48.7068 72.1279 47.8025 72.5279 47.42 73.2176C47.0374 73.9074 46.3998 76.4462 47.42 76.8809C48.4401 77.3156 49.1241 76.1796 49.5125 75.2811C49.9008 74.3827 51.0775 73.4263 51.8136 73.6871C52.5498 73.948 52.4976 74.2784 51.9411 75.2521C51.3847 76.2259 50.4399 77.8953 50.0399 79.4081C49.6342 80.921 48.301 81.7557 47.7098 82.4396C47.1186 83.1236 48.359 88.7519 48.359 88.7519C47.1881 90.5719 42.6322 90.4386 42.6322 90.4386C42.6322 90.4386 43.0901 87.7723 42.5047 85.4943C41.9192 83.2163 41.7569 79.9182 41.3222 77.2751C41.2005 76.5273 41.1425 75.7564 41.0961 74.9971L41.0903 75.0029Z" fill="#EBA398"/>
<path d="M46.8287 92.5655L48.3879 90.1137L48.2314 84.7057C48.2314 84.7057 42.5336 84.5144 41.3569 85.6795L41.6583 91.0469L46.8287 92.5655Z" fill="white"/>
<path d="M67.2783 79.6917C65.893 75.1299 64.3221 75.0604 64.3221 75.0604C64.3221 75.0604 60.456 76.1211 56.2478 83.2274C54.3292 86.4618 49.9761 98.4719 49.7617 97.701C49.3096 96.0722 48.9444 90.4323 48.4459 86.9951C48.4459 86.9951 41.7801 87.3197 39.8093 88.9079C39.8093 88.9079 40.4701 103.978 41.8033 109.305C43.5886 116.47 46.3708 120.214 50.4862 120.347C53.0076 120.429 53.7322 119.13 55.245 117.461C58.6765 113.687 67.0754 94.3217 68.1014 89.6904C69.1331 85.0591 67.7014 81.0944 67.2783 79.6917Z" fill="#268AFF"/>
<path d="M74.1935 240.675C74.1935 240.675 74.3384 245.445 74.576 247.149C74.6572 247.717 75.0224 248.813 75.0919 249.387C75.1846 250.146 75.3817 252.308 74.8427 252.847L65.3018 252.76L51.7036 252.847C51.7036 252.847 50.3356 251.381 53.1759 249.862C56.0682 248.314 63.2557 244.889 63.2557 244.889L65.012 239.608L74.1877 240.669L74.1935 240.675Z" fill="#444968"/>
<path d="M51.379 252.847C51.379 252.847 50.9385 251.961 51.379 251.167H75.2079C75.2079 251.167 75.4861 252.21 74.8427 252.847H51.379Z" fill="white"/>
<path d="M90.7189 240.675C90.7189 240.675 90.8638 245.445 91.1015 247.149C91.1826 247.717 91.5478 248.813 91.6173 249.387C91.7101 250.146 91.9072 252.308 91.3681 252.847L81.8273 252.76L73.7356 252.847C73.7356 252.847 72.3676 251.381 75.2078 249.862C78.1002 248.314 79.7812 244.889 79.7812 244.889L81.5375 239.608L90.7131 240.669L90.7189 240.675Z" fill="#444968"/>
<path d="M73.411 252.847C73.411 252.847 72.9705 251.961 73.411 251.167H91.7333C91.7333 251.167 92.0115 252.21 91.3681 252.847H73.411Z" fill="white"/>
<path d="M74.4484 238.976C74.6861 234.188 76.4076 177.082 76.6916 172.306C76.993 167.263 76.0076 148.976 76.0076 148.976L71.3705 131.691L59.8821 129.036C59.8821 129.036 57.1868 159.125 58.1085 171.558C58.9315 182.664 62.421 230.467 63.6382 239.486C64.9192 239.729 72.5704 239.671 74.4484 238.97V238.976Z" fill="#323945"/>
<path d="M75.5787 173.79C76.6336 177.338 76.5061 192.785 77.1147 201.914C78.6508 224.908 79.1319 239.196 79.1319 239.196C81.3577 239.179 90.2667 238.797 90.8579 238.727C90.8057 235.348 92.5099 218.561 93.304 199.665C93.7445 189.22 95.8138 162.458 95.9123 156.79C96.2022 139.974 94.6719 132.219 94.6719 132.219L67.0754 129.332L71.8401 156.453C73.1558 163.397 74.4484 170.017 75.5729 173.796L75.5787 173.79Z" fill="#323945"/>
<path d="M81.8735 62.639C81.7692 65.74 82.4184 67.2471 82.9516 68.7831C83.4849 70.3192 89.2233 73.6289 89.2233 73.6289C89.2233 73.6289 72.2747 89.3428 66.0552 89.0936C59.8357 88.8443 69.1389 72.6609 69.1389 72.6609C69.1389 72.6609 71.7821 71.1712 72.3849 69.5193C72.9877 67.8673 73.4108 64.1113 73.4108 64.1113L80.9055 55.1501L81.8735 62.6332V62.639Z" fill="#EBA398"/>
<path d="M80.5751 68.5627C81.2243 68.186 81.8503 67.7744 82.4415 67.2991C82.0822 66.1456 81.7981 64.7661 81.8735 62.6388L80.9055 55.1557L73.4108 64.1169C73.4108 64.1169 72.9877 67.873 72.3848 69.5249C72.3095 69.7336 72.1994 69.9365 72.0718 70.1335C76.5466 70.7132 78.4015 69.5191 80.5809 68.5627H80.5751Z" fill="#D4877B"/>
<path d="M95.3037 136.908C96.1268 138.907 96.5963 141.023 96.1268 141.614C95.6573 142.2 83.427 143.26 75.0744 143.376C66.7276 143.492 59.4358 142.084 58.491 140.2C57.552 138.316 59.3141 134.323 59.3141 134.323L95.2979 136.908H95.3037Z" fill="#F7EDE6"/>
<path d="M84.7659 70.7714C84.7659 70.7714 93.6633 75.2462 95.0892 76.6721C98.0048 79.5877 98.3236 85.7318 98.0918 89.8298C97.8947 93.2729 101.448 124.011 98.2656 134.978C97.7382 136.786 95.7095 139.082 93.8952 139.586C92.533 139.963 90.7941 140.374 88.8582 140.647C83.5951 141.388 74.2687 141.684 70.3156 141.168C65.5684 140.542 61.6036 139.389 59.0359 138.49C57.1694 137.835 56.3463 136.004 56.1956 134.039C54.9378 117.461 60.682 90.1486 61.2385 86.7172C61.8993 82.6365 64.3163 75.0723 64.3163 75.0723L69.7997 72.2553C69.9678 73.8493 72.269 74.9564 76.0714 74.91C80.523 74.852 84.7601 70.7888 84.7601 70.7888L84.7659 70.7714Z" fill="#268AFF"/>
<path d="M84.3081 70.1165C84.3081 70.1165 81.2766 73.403 75.9788 74.8927C75.9788 74.8927 77.4105 75.0782 78.39 75.7158C79.3175 76.3186 80.0072 77.4952 79.3696 79.0776C79.3696 79.0776 82.8996 77.2112 84.8008 73.5015C85.6413 71.8612 85.6877 70.8758 85.6877 70.8758L84.3139 70.1165H84.3081Z" fill="#F7EDE6"/>
<path d="M70.7272 71.0845C70.1823 71.6584 69.5737 72.1453 68.855 72.4757C68.9361 72.6785 69.0231 72.8872 69.1332 73.1133C70.9301 76.9389 73.4805 78.6604 73.4805 78.6604C73.2196 77.2345 73.4341 76.5505 74.1181 75.6463C74.4311 75.2347 75.7874 74.887 75.7874 74.887C72.4719 73.8204 71.7705 72.3366 70.7272 71.0788V71.0845Z" fill="#F7EDE6"/>
<path d="M68.0899 48.8787C68.0899 48.8787 66.0148 47.0702 66.1887 44.7401C66.4611 41.071 68.5072 41.6101 68.5072 41.6101C68.5072 41.6101 67.4291 37.9931 71.417 36.8802C74.1819 36.1093 75.915 38.5438 75.915 38.5438C75.915 38.5438 76.9236 36.2484 79.7812 37.2454C82.0881 38.0453 81.891 39.79 81.891 39.79C81.891 39.79 84.5168 39.8074 86.1108 41.8245C87.4324 43.4997 87.131 45.824 86.2557 46.9891C85.3804 48.1541 77.451 49.5337 77.451 49.5337L68.0783 48.8729L68.0899 48.8787Z" fill="#302426"/>
<path d="M69.9273 46.7806C67.8986 49.5049 67.7363 53.1566 67.8407 55.1506C67.945 57.1387 67.7305 57.3126 67.4059 59.8456C66.9828 63.1496 68.5246 65.4739 70.9533 67.1722C73.9848 69.2995 80.326 67.491 82.4417 64.4074C83.7285 62.5351 84.3719 60.5818 84.8936 58.9356C85.4152 57.2836 87.1657 51.7539 85.2297 49.1282C83.2938 46.5024 79.3754 45.9691 75.3064 46.1778C71.2315 46.3807 70.7794 45.633 69.9215 46.7806H69.9273Z" fill="#EBA398"/>
<path d="M83.2474 54.3562C83.2474 54.3562 81.723 52.1652 81.5143 50.3625C81.3173 48.6584 81.8679 47.3078 81.8679 47.3078C81.8679 47.3078 79.9435 47.731 78.9639 47.8469C71.8286 48.6989 69.6724 47.2267 69.6724 47.2267C69.6724 47.2267 65.0816 44.1836 73.0922 41.6506C78.0655 40.0797 79.3465 41.2042 82.7548 41.6506C87.0093 42.207 85.7051 44.9545 85.7051 44.9545C85.7051 44.9545 87.8498 45.5457 88.7018 48.0034C89.5829 50.5538 88.8989 52.4666 87.7338 55.2488C86.1572 59.0165 82.9634 60.7438 82.9634 60.7438L83.2938 58.5933L83.0967 58.3209C82.6968 57.7703 82.5577 57.0689 82.7258 56.4081L83.2359 54.362L83.2474 54.3562Z" fill="#302426"/>
<path d="M75.7122 50.7395C75.7122 50.7395 78.2336 50.3396 80.5696 52.3103C80.5696 52.3103 79.9667 52.5538 79.787 52.5364C79.3349 52.49 76.7555 51.6148 75.121 52.1133C75.121 52.1133 75.2485 51.2032 75.7064 50.7395H75.7122Z" fill="#302426"/>
<path d="M71.7996 49.5979C71.7996 49.5979 70.3679 49.1168 67.9856 50.5775C67.9856 50.5775 68.0204 51.2209 68.4841 51.1107C68.9478 51.0006 70.6635 50.4963 71.9909 51.0354C71.9909 51.0354 72.1822 50.1138 71.7996 49.5979Z" fill="#302426"/>
<path d="M78.1813 55.2785C78.1233 55.8581 77.7988 56.2986 77.4568 56.2638C77.1148 56.2291 76.8829 55.7306 76.9409 55.1509C76.9989 54.5713 77.3234 54.1308 77.6654 54.1656C78.0074 54.2003 78.2393 54.6988 78.1813 55.2785Z" fill="#302426"/>
<path d="M70.5998 54.542C70.5418 55.1217 70.2172 55.5622 69.8752 55.5274C69.5332 55.4926 69.3014 54.9941 69.3593 54.4145C69.4173 53.8349 69.7419 53.3943 70.0839 53.4291C70.4259 53.4639 70.6577 53.9624 70.5998 54.542Z" fill="#302426"/>
<path d="M83.9546 56.8547C85.45 55.6317 87.6121 56.1939 87.1542 58.1705C86.7716 59.8167 85.879 60.0311 84.3545 61.231C83.3228 62.0425 82.5519 61.486 82.5576 61.0107C82.575 59.6718 83.0214 57.6141 83.9488 56.8547H83.9546Z" fill="#EBA398"/>
<path d="M73.5037 55.0632C73.0399 55.4747 72.611 55.9153 72.1821 56.3616C71.7532 56.8021 71.3416 57.26 70.9301 57.7237L70.6287 58.0715L70.478 58.2454C70.4258 58.3207 70.3736 58.4019 70.3273 58.4772C70.2983 58.57 70.2635 58.6627 70.2519 58.7555C70.2519 58.8482 70.2403 58.9467 70.2809 59.0279C70.3273 59.2018 70.4258 59.3409 70.5359 59.4568C70.9822 59.9032 71.2431 60.0481 71.8227 60.1988C71.8227 60.1988 72.2053 60.1872 71.9734 60.0133C71.7416 59.851 70.9243 59.48 70.762 59.2656C70.6055 59.0511 70.5359 58.8192 70.6461 58.6164C70.6866 58.57 70.7156 58.5178 70.7504 58.4657L70.9011 58.2918L71.2083 57.9498C71.6082 57.4861 72.0082 57.0224 72.3908 56.5413C72.7733 56.0602 73.1501 55.5791 73.4979 55.0632H73.5037Z" fill="#D4877B"/>
<path d="M84.9921 57.2141C85.7166 56.8084 86.331 57.1793 86.3948 57.8053C86.4585 58.4371 86.3948 57.9387 85.8905 57.6373C85.5659 57.4402 84.9863 58.1068 84.7254 58.6458C84.3023 59.5095 83.9603 60.3905 83.3981 60.3673C82.6793 60.3384 83.1778 59.7008 83.5777 58.8951C83.9719 58.0952 84.3718 57.5619 84.9921 57.2141Z" fill="#D4877B"/>
<path d="M61.2443 86.7057C61.2443 86.7057 56.6652 112.088 56.3812 116.969" stroke="#0071F5" stroke-width="1.12" stroke-miterlimit="10"/>
<path d="M70.9069 61.2709C71.5967 61.7462 73.5095 61.4506 74.7731 60.9753C74.7731 60.9753 73.9964 64.1401 72.3966 63.6185C71.075 63.1837 70.9069 61.2709 70.9069 61.2709Z" fill="#302426"/>
<path d="M73.0631 152.314C73.0631 152.314 76.4308 174.862 76.5235 190.57" stroke="#272C34" stroke-width="1.12" stroke-miterlimit="10"/>
<path d="M95.0892 76.6717C99.0017 80.5262 102.004 86.5661 103.442 94.7679C104.879 102.97 105.639 116.417 103.175 119.907C100.712 123.396 97.4831 122.927 94.3588 121.959C91.2288 120.991 90.6666 113.757 90.6666 113.757C90.6666 113.757 90.4347 98.9297 89.2291 94.4781C86.4178 84.0794 95.0892 76.6775 95.0892 76.6775V76.6717Z" fill="#268AFF"/>
<path d="M92.0634 87.9514C91.5765 89.0932 89.6174 93.1739 90.1043 98.2283C90.5912 103.289 92.5503 109.978 92.5503 109.978" stroke="#0071F5" stroke-width="1.12" stroke-miterlimit="10"/>
<path d="M86.0526 105.12C86.6264 104.46 87.8958 103.034 87.2756 102.512C86.6554 101.99 84.6209 103.48 82.824 105.12C81.0271 106.767 80.2678 107.311 80.8474 108.407C81.4271 109.502 85.2585 106.03 86.0526 105.12Z" fill="#803532"/>
<path d="M84.8875 101.185C84.6905 101.173 81.033 103.723 80.1171 105.433C80.0302 105.601 79.9722 105.77 79.9316 105.932C80.4243 106.656 80.888 107.398 81.3286 108.152C82.0357 108.129 83.1718 107.897 84.4354 106.865C85.8207 105.735 87.1539 104.558 87.5365 103.648C86.9858 102.848 84.8933 101.179 84.8933 101.179L84.8875 101.185Z" fill="#F7EDE6"/>
<path d="M87.2757 102.512C87.3626 102.941 84.6963 106.123 82.9806 107.155C81.2648 108.187 80.5751 108.1 80.5751 108.1C80.5751 108.1 87.1945 119.014 91.2346 120.991C95.2747 122.967 99.0771 123.072 100.109 120.15C101.141 117.229 101.854 113.166 101.854 113.166C101.854 113.166 97.4773 110.302 94.8689 108.024C91.7621 105.306 87.2815 102.518 87.2815 102.518L87.2757 102.512Z" fill="#268AFF"/>
<path d="M94.8631 108.018C91.7563 105.3 87.2757 102.512 87.2757 102.512C87.3626 102.941 84.6963 106.123 82.9806 107.155C81.2648 108.187 80.5751 108.1 80.5751 108.1C80.5751 108.1 87.1945 119.014 91.2346 120.991C95.2747 122.967 101.129 123.622 103.181 119.907" stroke="#0071F5" stroke-width="1.12" stroke-linecap="round" stroke-linejoin="round"/>
<path d="M80.5462 96.5362C79.8506 95.1915 79.2536 94.9944 77.7581 93.9511C76.2627 92.9077 75.6657 92.4556 75.37 93.2555C75.0686 94.0496 75.9671 94.8959 76.7612 95.5972C77.5553 96.2928 76.709 97.1912 77.9031 97.539C79.0971 97.8868 80.5404 96.542 80.5404 96.542L80.5462 96.5362Z" fill="#D4877B"/>
<path d="M82.3314 108.054H82.3198C82.1517 108.164 81.9488 108.216 81.7517 108.205L64.0612 107.202C63.7077 107.184 63.3947 106.976 63.2381 106.663L51.8193 84.2772C51.5875 83.8193 51.7498 83.2571 52.1903 82.9904C52.3526 82.8919 52.5381 82.8455 52.7235 82.8455L71.411 83.2571C71.7878 83.2629 72.1298 83.4889 72.2863 83.8367L82.7255 106.808C82.9342 107.266 82.7661 107.799 82.3372 108.06L82.3314 108.054Z" fill="#B7ACAC"/>
<path d="M80.4823 108.187L63.0758 107.805C62.699 107.799 62.357 107.573 62.2005 107.225L52.0453 84.8858C51.7439 84.225 52.2366 83.4715 52.9669 83.4889L70.3734 83.8714C70.7502 83.8772 71.0922 84.1033 71.2487 84.451L81.4039 106.79C81.7053 107.451 81.2126 108.205 80.4823 108.187Z" fill="#D1CBCB"/>
<path d="M80.7317 104.582C80.9809 104.68 81.4852 104.802 81.6533 104.97C82.6097 104.605 84.2848 103.098 84.5283 101.417C83.6067 100.495 81.8678 98.9417 81.6475 98.333C81.3403 97.4926 80.9635 95.9681 79.5144 95.6667C78.0653 95.3595 75.4744 94.9827 74.4832 95.2088C73.492 95.4349 73.6427 96.5072 74.176 96.8086C74.176 96.8086 73.1848 96.6579 72.8022 97.0347C72.4197 97.4172 72.4197 98.5591 73.6427 98.8663C73.6427 98.8663 73.0341 99.1735 73.0341 100.008C73.0341 100.843 73.9499 101.225 73.9499 101.225C73.9499 101.225 73.1094 101.683 73.8746 102.524C74.6339 103.364 76.8481 103.666 78.2972 104.431C79.7463 105.19 79.9723 104.28 80.7375 104.582H80.7317Z" fill="#EBA398"/>
<path d="M51.1471 107.259C51.1471 107.259 50.4805 100.078 49.3096 96.0665" stroke="#0071F5" stroke-width="1.12" stroke-miterlimit="10"/>
<path d="M148.961 234.572L141.75 233.876L140.991 245.446H148.613C148.584 243.643 148.961 234.572 148.961 234.572Z" fill="#E7B2A1"/>
<path d="M139.379 240.501C139.379 240.501 139.234 245.208 139.217 246.964C139.217 247.55 138.991 248.686 138.997 249.271C139.003 250.054 139.078 252.285 139.675 252.848L148.955 252.755L156.844 252.848C156.844 252.848 157.992 251.329 155.041 249.764C152.027 248.17 149.158 245.475 149.158 245.475L147.089 240.102L139.385 240.496L139.379 240.501Z" fill="#49847A"/>
<path d="M157.157 252.848C157.157 252.848 157.476 251.932 156.948 251.109H139.107C139.107 251.109 138.968 252.187 139.669 252.848H157.157Z" fill="white"/>
<path d="M121.434 240.502C121.434 240.502 121.579 245.208 121.596 246.965C121.596 247.55 121.822 248.686 121.816 249.272C121.811 250.054 121.735 252.286 121.138 252.848L111.858 252.755L103.969 252.848C103.969 252.848 102.822 251.329 105.772 249.764C108.786 248.17 111.655 245.475 111.655 245.475L113.725 240.102L121.428 240.496L121.434 240.502Z" fill="#49847A"/>
<path d="M103.65 252.848C103.65 252.848 103.332 251.932 103.859 251.109H121.7C121.7 251.109 121.839 252.187 121.138 252.848H103.65Z" fill="white"/>
<path d="M128.569 151.574C128.569 151.574 131.554 179.512 131.925 183.668C132.302 187.865 137.235 243.098 137.235 243.098C137.235 243.098 150.114 242.582 150.114 242.414C150.114 242.252 148.746 186.949 149.621 176.707C150.474 166.719 149.523 146.965 149.581 145.366C149.743 140.705 147.703 134.103 147.703 134.103L125.335 134.225L128.569 151.579V151.574Z" fill="#404040"/>
<path d="M131.079 158.402C131.079 158.402 128.569 177.379 127.7 183.674C127.126 187.853 123.352 243.104 123.352 243.104C123.352 243.104 110.734 243.266 110.734 243.104C110.734 242.942 110.218 186.955 109.343 176.712C108.49 166.725 109.441 146.971 109.383 145.371C109.221 140.711 110.826 134.7 110.826 134.7L130.407 133.309L131.079 158.402Z" fill="#404040"/>
<path d="M109.198 133.599C108.415 136.213 108.114 137.929 109.65 138.648C110.339 138.972 117.098 140.346 129.902 140.213C142.706 140.079 147.146 139.169 148.845 138.775C150.543 138.381 151.065 136.816 150.021 133.813C148.978 130.811 109.203 133.599 109.203 133.599H109.198Z" fill="#F7EDE6"/>
<path d="M143.634 68.0591C142.776 72.2731 141.907 76.1741 141.066 79.7968H121.527C120.761 75.8842 119.904 71.6587 118.93 67.0854C120.929 65.9841 123.59 65.6189 124.471 63.6713C124.796 62.9526 124.888 60.3442 124.9 58.982C124.935 56.4896 124.744 54.8318 124.744 54.8318H135.507C135.507 54.8318 135.252 58.4082 135.397 61.1789C135.478 62.6743 135.67 63.9495 136.081 64.3785C137.368 65.7174 141.101 66.726 143.628 68.0649L143.634 68.0591Z" fill="#EBA398"/>
<path d="M124.471 63.6714C124.407 63.8105 123.781 64.5872 123.7 64.709C128.302 66.7029 133.873 65.1495 135.426 61.5847C135.415 61.4514 135.409 61.3123 135.403 61.1732C135.258 58.4025 135.513 54.8262 135.513 54.8262H124.749C124.749 54.8262 124.941 56.4839 124.906 58.9764C124.888 60.3327 124.801 62.9469 124.477 63.6656L124.471 63.6714Z" fill="#D4877B"/>
<path d="M108.357 113.515C108.23 116.847 107.807 124.736 107.366 130.492C107.14 133.466 109.041 136.213 111.957 136.909C111.974 136.909 111.991 136.914 112.009 136.92C116.565 137.987 136.504 138.537 147.152 136.868C150.392 136.358 152.612 133.419 152.265 130.173C151.812 125.919 151.308 119.062 151.198 115.242C151.018 108.866 151.639 104.762 152.27 97.5397C152.45 95.4704 151.331 90.3349 151.436 79.5652L150.752 76.2207C150.862 74.9977 150.914 74.3137 150.914 74.3137L150.3 74.0297L149.419 69.723L137.524 65.1323C137.524 65.1323 137.055 69.4448 129.694 69.4448C121.277 69.4448 121.521 65.5728 121.521 65.5728L111.371 70.065L106.346 82.4692C107.285 94.2764 108.78 102.229 108.346 113.52L108.357 113.515Z" fill="#49847A"/>
<path d="M144.805 105.382C145.286 97.4349 145.031 89.1693 145.518 83.7903C146.648 71.2817 149.43 69.7225 149.43 69.7225C149.43 69.7225 153.818 72.128 155.98 84.509C156.589 87.9926 158.507 95.4236 157.609 105.614C156.931 113.288 155.569 114.314 153.453 115.259C150.555 116.551 144.95 117.913 142.231 116.151C143.669 111.167 144.747 112.378 144.805 105.382Z" fill="#49847A"/>
<path d="M114.704 105.382C114.223 97.4348 114.478 89.1692 113.991 83.7902C112.861 71.2816 111.377 70.0644 111.377 70.0644C111.377 70.0644 106.166 72.7887 104.369 81.6397C103.668 85.1002 101.622 95.6669 101.894 105.613C102.103 113.311 103.94 115.224 106.085 116.105C109.203 117.386 118.182 116.122 120.39 115.734C118.953 110.749 114.762 112.378 114.698 105.387L114.704 105.382Z" fill="#49847A"/>
<path d="M115.382 109.167C114.154 100.808 114.154 92.2412 113.997 83.7843" stroke="#3F736A" stroke-width="1.18" stroke-miterlimit="10"/>
<path d="M148.537 104.628C148.143 99.9276 146.375 90.8621 146.48 82.8747" stroke="#3F736A" stroke-width="1.18" stroke-miterlimit="10"/>
<path d="M138.446 113.404C141.738 113.676 141.559 107.439 141.559 107.439C141.559 107.439 135.936 104.489 135.67 107.138C135.397 109.787 138.452 113.404 138.452 113.404H138.446Z" fill="#808194"/>
<path d="M138.075 107.312C140.742 106.993 143.066 106.268 145.309 105.063C144.671 104.564 143.912 104.019 143.048 103.486C140.365 101.828 137.078 104.06 135.374 104.054L134.342 107.903C135.583 107.677 136.829 107.462 138.075 107.312Z" fill="#EBA398"/>
<path d="M134.748 104.541L136.296 103.347L138.614 103.213C138.614 103.213 139.959 107.885 140.347 108.859L134.638 109.723L134.754 104.541H134.748Z" fill="white"/>
<path d="M136.29 103.347C135.502 104.657 139.171 112.378 139.53 113.659C139.53 113.659 131.166 115.241 123.068 115.589C113.684 115.995 106.85 115.577 104.694 114.105C102.538 112.633 105.163 102.188 110.734 104.315C114.125 105.608 119.364 106.164 124.239 105.132C129.114 104.101 136.296 103.347 136.296 103.347H136.29Z" fill="#49847A"/>
<path d="M125.468 103.347C123.775 103.156 119.764 100.727 116.913 102.066C114.055 103.405 112.165 104.988 112.165 104.988C112.165 104.988 118.895 105.932 121.666 107.654C124.436 109.375 127.045 112.042 127.045 112.042L125.468 103.347Z" fill="#EBA398"/>
<path d="M128.001 105.329L125.474 103.347L123.804 102.872C123.804 102.872 120.86 103.915 120.199 107.538C119.735 110.082 120.199 110.216 120.199 110.216L126.21 111.253L128.001 105.335V105.329Z" fill="white"/>
<path d="M125.468 103.347C123.283 104.101 121.735 104.616 121.735 111.984C121.735 111.984 128.76 115.183 136.765 116.464C146.039 117.942 151.14 116.47 153.453 115.259C155.766 114.041 156.397 102.634 151.494 103.95C147.987 104.889 145.309 105.55 136.858 104.674C131.902 104.159 125.468 103.353 125.468 103.353V103.347Z" fill="#49847A"/>
<path d="M139.13 103.133C140.057 102.432 142.214 100.611 143.495 99.9623C144.776 99.3131 147.39 98.4842 148.062 98.2813C148.735 98.0785 148.422 98.9363 147.917 99.4928C147.413 100.055 146.891 100.461 146.891 100.461C146.891 100.461 149.482 100.513 150.103 100.443C150.723 100.374 150.984 101.29 150.103 101.863C150.103 101.863 150.815 102.571 150.155 103.15C149.494 103.73 148.103 103.666 148.103 103.666C148.103 103.666 148.543 104.501 147.691 104.785C146.839 105.069 146.086 104.86 145.176 104.988C144.213 105.121 142.069 105.272 141.159 105.08C139.785 104.796 139.124 103.139 139.124 103.139L139.13 103.133Z" fill="#EBA398"/>
<path d="M120.327 106.942C115.921 105.411 111.035 104.733 106.352 104.924" stroke="#3F736A" stroke-width="1.18" stroke-miterlimit="10"/>
<path d="M108.067 116.534C115.921 116.882 124.384 115.52 131.49 114.987" stroke="#3F736A" stroke-width="1.18" stroke-miterlimit="10"/>
<path d="M150.827 116.552C146.184 117.398 141.165 117.375 136.539 116.488C133.386 115.879 130.447 114.888 127.398 114.088C125.485 113.584 124.152 113.271 122.158 112.923C122.158 112.923 120.506 104.414 125.462 103.353C128.76 104.141 143.356 105.289 148.787 104.646" stroke="#3F736A" stroke-width="1.18" stroke-miterlimit="10"/>
<path d="M137.669 51.9055C137.669 51.9055 137.576 48.6538 140.075 48.7755C141.674 48.8508 141.773 50.4506 140.504 52.4852C139.97 53.343 139.889 55.2964 139.228 55.9166C138.428 56.6701 137.779 55.4761 137.547 54.937C137.159 54.0386 137.669 51.9055 137.669 51.9055Z" fill="#EBA398"/>
<path d="M139.054 50.8447C139.57 49.7144 140.602 49.6391 140.666 50.4506C140.724 51.262 140.347 51.4475 140.347 51.4475C140.347 51.4475 139.785 51.4939 139.396 52.1779C138.579 53.6154 138.51 55.3253 138.51 55.3253C138.51 55.3253 137.802 53.5922 139.054 50.8447Z" fill="#D4877B"/>
<path d="M122.268 51.9055C122.268 51.9055 122.361 48.6538 119.863 48.7755C118.263 48.8508 118.164 50.4506 119.434 52.4852C119.967 53.343 120.048 55.2964 120.709 55.9166C121.509 56.6701 122.158 55.4761 122.39 54.937C122.778 54.0386 122.268 51.9055 122.268 51.9055Z" fill="#EBA398"/>
<path d="M120.744 50.8447C120.228 49.7144 119.196 49.6391 119.132 50.4506C119.074 51.262 119.451 51.4475 119.451 51.4475C119.451 51.4475 120.013 51.4939 120.402 52.1779C121.219 53.6154 121.289 55.3253 121.289 55.3253C121.289 55.3253 121.996 53.5922 120.744 50.8447Z" fill="#D4877B"/>
<path d="M139.588 45.5292C139.513 46.59 139.298 47.2797 139.014 48.8563C138.945 49.2331 139.432 54.3919 136.742 58.884C136.018 60.0955 132.945 63.4806 129.572 63.5675C128.088 63.6081 123.254 60.907 121.95 56.8205C121.683 55.9917 121.167 54.0963 120.756 49.6446C120.715 49.1867 120.646 48.7926 120.588 48.4448C120.35 46.8798 120.159 46.2654 120.107 45.2162C119.95 41.8891 123.608 37.1129 129.949 37.2172C137.455 37.339 139.826 42.2137 139.588 45.535V45.5292Z" fill="#EBA398"/>
<path d="M139.037 49.2158L138.214 48.0334C138.214 48.0334 137.994 52.5371 137.455 54.5717C136.783 57.0757 136.678 57.6321 135.455 58.0031C134.058 58.4262 133.728 56.1077 131.618 55.0817C130.986 54.7745 128.992 54.5137 127.972 55.0817C125.932 56.2236 125.532 58.4262 124.135 58.0031C122.918 57.6321 122.808 57.0757 122.135 54.5717C121.59 52.5429 121.353 48.6942 121.353 48.6942L120.553 49.2158C120.553 49.2158 120.988 53.4588 121.318 55.8527C121.59 57.8408 121.335 60.2927 124.645 62.2113C127.479 63.8574 127.665 64.4545 129.798 64.4545C131.462 64.4545 132.117 63.8516 134.951 62.2113C138.255 60.2927 138.11 57.8408 138.382 55.8527C138.707 53.4588 139.037 49.2158 139.037 49.2158ZM128.963 61.1563C127.219 61.7186 126.094 59.9681 126.187 59.5623C126.309 59.0349 126.39 57.3307 127.827 56.4555C129.149 55.644 131.218 56.015 131.775 56.4555C133.096 57.4872 133.293 59.0407 133.409 59.5623C133.508 59.9855 132.65 61.5215 130.714 61.1563C130.198 61.0578 129.711 60.9187 128.963 61.1563Z" fill="#4E2100"/>
<path d="M140.388 44.2423C140.365 44.3466 139.843 48.1548 139.629 48.7577C139.298 49.6793 138.863 50.8096 138.863 50.8096L138.655 49.4938C137.93 47.9172 137.536 46.2073 137.496 44.4684L137.426 41.205L138.51 40.2428C140.649 40.5616 140.881 41.802 140.388 44.2423Z" fill="#4E2100"/>
<path d="M122.645 41.3849C122.645 41.3849 122.674 44.3063 122.593 45.2742C122.46 46.8451 122.141 47.7957 121.353 49.1578L121.306 49.2332L120.715 50.2533C120.715 50.2533 120.541 49.6621 120.298 48.8158C120.118 48.1956 119.677 45.0134 119.567 44.5613C119.533 44.4222 119.504 44.2831 119.48 44.1556C119.022 41.7674 119.469 40.7647 121.584 40.4517L122.645 41.3849Z" fill="#4E2100"/>
<path d="M138.51 40.243L137.426 41.2052L135.362 41.9471C135.113 41.6921 131.346 40.3879 128.076 40.6371C123.932 40.9559 122.599 42.179 122.541 42.2485L120.843 41.6863L120.425 41.5935C120.425 41.5935 120.9 39.7967 121.237 39.2924C122.865 36.8347 127.3 35.2465 131.328 35.6581C131.461 35.6697 131.601 35.6871 131.734 35.7044C135.496 36.2029 137.223 37.9708 137.223 37.9708L138.51 40.243Z" fill="#4E2100"/>
<path d="M122.332 64.4828C122.332 64.4828 125.045 67.9258 129.775 69.5024C129.775 69.5024 128.5 69.6937 127.63 70.3545C126.807 70.9805 126.193 72.2093 126.772 73.8613C126.772 73.8613 123.619 71.9021 121.909 68.0128C121.156 66.297 121.109 65.2653 121.109 65.2653L122.332 64.477V64.4828Z" fill="#F7EDE6"/>
<path d="M137.223 64.4828C137.223 64.4828 134.51 67.9258 129.781 69.5024C129.781 69.5024 131.056 69.6937 131.925 70.3545C132.748 70.9805 133.363 72.2093 132.783 73.8613C132.783 73.8613 135.936 71.9021 137.646 68.0128C138.4 66.297 138.446 65.2653 138.446 65.2653L137.223 64.477V64.4828Z" fill="#F7EDE6"/>
<path d="M131.514 45.2266C131.125 45.7309 131.183 46.4206 131.183 46.4206C132.615 45.754 134.962 46.3453 135.368 46.3453C135.531 46.3453 135.925 46.2641 135.925 46.2641C133.751 44.5658 131.514 45.2266 131.514 45.2266Z" fill="#4E2100"/>
<path d="M130.256 47.5975C129.931 48.1887 129.647 48.7973 129.369 49.4117C129.085 50.0203 128.836 50.6405 128.581 51.2665L128.401 51.7361L128.308 51.9679C128.285 52.0664 128.262 52.165 128.239 52.2635C128.239 52.3679 128.239 52.4722 128.262 52.5707C128.302 52.6635 128.326 52.7736 128.389 52.8432C128.5 53.0055 128.65 53.1156 128.807 53.1909C129.427 53.4866 129.752 53.5387 130.395 53.4808C130.395 53.4808 130.783 53.3301 130.488 53.2373C130.186 53.1562 129.317 52.9185 129.079 52.7562C128.633 52.4896 128.656 52.1592 128.673 52.0954L128.766 51.8636L128.957 51.3999C129.201 50.7797 129.444 50.1536 129.653 49.5218C129.867 48.89 130.082 48.2582 130.25 47.6032L130.256 47.5975Z" fill="#D4877B"/>
<path d="M127.769 57.295C128.72 57.979 130.296 58.0949 131.641 57.2197C131.641 57.2197 131.212 58.9875 129.473 58.7963C128.111 58.6456 127.769 57.295 127.769 57.295Z" fill="#4E2100"/>
<path d="M133.044 49.5917C133.425 49.5917 133.734 49.1038 133.734 48.502C133.734 47.9001 133.425 47.4122 133.044 47.4122C132.663 47.4122 132.354 47.9001 132.354 48.502C132.354 49.1038 132.663 49.5917 133.044 49.5917Z" fill="#4E2100"/>
<path d="M127.926 45.227C128.314 45.7313 128.256 46.4211 128.256 46.4211C126.824 45.7545 124.477 46.3457 124.071 46.3457C123.909 46.3457 123.515 46.2646 123.515 46.2646C125.688 44.5663 127.926 45.227 127.926 45.227Z" fill="#4E2100"/>
<path d="M126.517 49.5917C126.898 49.5917 127.207 49.1038 127.207 48.502C127.207 47.9001 126.898 47.4122 126.517 47.4122C126.136 47.4122 125.827 47.9001 125.827 48.502C125.827 49.1038 126.136 49.5917 126.517 49.5917Z" fill="#4E2100"/>
<path d="M152.873 106.269C152.873 106.269 151.024 104.252 148.793 104.64" stroke="#3F736A" stroke-width="1.18" stroke-miterlimit="10"/>
<path d="M129.427 170.7C129.781 169.17 130.865 155.647 130.865 155.647" stroke="#363636" stroke-miterlimit="10"/>
<path d="M230.898 168.464C233.298 181.106 239.094 179.489 236.625 196.072L237.836 195.695C237.981 194.287 237.558 192.722 238.312 191.667C241.21 187.609 239.94 175.86 230.904 168.458L230.898 168.464Z" fill="#B2D3FB"/>
<path d="M253.823 178.555C247.053 184.479 245.824 185.749 243.082 191.939C243.198 190.403 243.436 188.444 244.543 185.401C246.119 181.535 246.861 177.703 246.861 177.703C244.456 180.63 238.764 189.145 242.149 194.739C241.668 196.785 241.529 199.04 241.79 201.503L243.395 203.207C243.181 199.492 243.285 196.704 243.656 194.594C246.827 196.055 260.941 192.722 260.013 192.507C255.822 188.942 250.739 192.235 243.963 193.208C248.693 186.16 251.927 188.635 261.439 173.605C261.439 173.605 256.872 175.889 253.829 178.549L253.823 178.555Z" fill="#B2D3FB"/>
<path d="M238.549 200.257C232.823 193.829 229.403 191.876 218.175 194.072C229.159 200.663 235.158 196.2 238.196 201.486C233.495 199.776 224.435 204.407 224.116 206.998C224.116 206.998 228.696 207.358 231.594 205.625C236.121 202.912 238.097 202.396 238.822 202.303C239.697 203.509 240.584 204.987 241.505 206.801L242.531 205.062C241.882 204.181 241.221 203.335 240.555 202.529C238.468 195.829 235.361 185.384 227.472 184.439C227.461 185.83 236.654 196.119 238.549 200.251V200.257Z" fill="#B2D3FB"/>
<path d="M256.275 199.649C245.464 208.755 243.986 208.784 237.842 219.148L237.071 217.988C237.918 216.69 238.706 215.432 239.454 214.221C237.176 209.236 241.227 199.892 245.656 196.681C247.203 200.454 241.268 209.247 240.346 212.783C245.204 204.993 246.154 200.97 256.275 199.649Z" fill="#B2D3FB"/>
<path d="M233.605 253.207H247.696L254.142 213.6H227.165L233.605 253.207Z" fill="#B2D3FB"/>
<path d="M13.6678 168.464C16.0675 181.106 21.8638 179.489 19.3946 196.072L20.606 195.695C20.7509 194.287 20.3278 192.722 21.0813 191.667C23.9795 187.609 22.7101 175.86 13.6736 168.458L13.6678 168.464Z" fill="#B2D3FB"/>
<path d="M39.8674 172.701C39.8674 172.701 36.3722 174.312 34.0884 176.596C29.092 181.592 28.2747 186.166 26.1242 192.356C26.2112 190.82 25.5388 189.168 26.188 186.073C27.2198 181.204 23.7535 177.819 23.7535 177.819C22.374 179.958 23.3304 185.157 24.5071 190.02C24.9418 191.823 25.3359 193.66 25.3881 195.156C25.0113 197.202 24.9012 199.457 25.1041 201.92L26.3619 203.624C26.1938 199.909 26.2749 197.121 26.5648 195.011C29.0514 196.472 43.3394 199.184 42.6149 198.97C39.3284 195.405 32.1235 192.658 26.8082 193.626C29.2021 186.606 34.4942 184.792 39.8674 172.695V172.701Z" fill="#B2D3FB"/>
<path d="M21.3191 200.257C14.2881 192.809 10.9494 187.001 0.10437 188.125C10.3813 198.263 13.6563 192.385 20.9655 201.491C16.2646 199.782 9.85965 204.54 9.54085 207.137C9.54085 207.137 13.465 208.227 15.7372 205.729C18.5542 202.633 20.8669 202.402 21.5915 202.315C22.4667 203.52 23.3536 204.998 24.2752 206.813L25.3012 205.074C24.652 204.193 23.9912 203.346 23.3246 202.541C21.2379 195.84 18.1311 185.395 10.2422 184.45C10.2306 185.841 19.4236 196.13 21.3191 200.263V200.257Z" fill="#B2D3FB"/>
<path d="M23.1159 212.783C24.0376 209.247 29.973 200.454 28.4254 196.681C24.0028 199.898 19.9511 209.236 22.2233 214.221C21.4756 215.432 20.6873 216.69 19.841 217.988L20.6119 219.148C26.7561 208.778 22.9363 213.409 33.7465 204.303C23.626 205.625 23.3246 210.302 23.1159 212.783Z" fill="#B2D3FB"/>
<path d="M16.3806 253.207H30.4715L36.9113 213.6H9.935L16.3806 253.207Z" fill="#B2D3FB"/>
</svg>
